<svg width="30" height="30" viewBox="0 0 30 30" fill="none" xmlns="http://www.w3.org/2000/svg">
<g clip-path="url(#clip0_3171_31883)">
<path d="M27.7013 25.1285C26.2982 25.1285 25.4662 24.4105 25.4025 23.3765H26.7439C26.7439 23.7212 26.9349 24.18 27.765 24.2085C28.3402 24.2085 28.6585 23.8639 28.6585 23.6048C28.5948 23.203 28.0833 23.1745 27.5739 23.0867C26.9986 23.0032 26.5529 22.8868 26.2324 22.7441C25.7867 22.5136 25.5298 22.024 25.5298 21.5081C25.5298 20.5881 26.2982 19.8701 27.6376 19.8701C28.9154 19.8701 29.7453 20.5311 29.8067 21.5366H28.5312C28.5312 21.2796 28.4675 20.8472 27.7012 20.8472C27.1896 20.8472 26.8713 20.9328 26.8076 21.306C26.8076 21.8242 27.8923 21.7956 28.7222 21.9954C29.4884 22.1974 29.9999 22.6848 29.9999 23.3765C29.9999 24.6411 28.979 25.1285 27.7013 25.1285ZM3.2561 16.6438L7.6604 14.0859L10.0228 18.139H4.08602" fill="black"/>
<path d="M12.5176 24.975V19.8594V24.975Z" fill="black"/>
<path d="M12.5176 24.975V19.8594" stroke="black"/>
<path d="M1.21203 22.4897C1.21203 23.2932 1.91455 23.9541 2.67856 23.9541C3.51068 23.9541 4.1474 23.2932 4.1474 22.4897C4.1474 21.7147 3.51068 21.0252 2.67856 21.0252C1.91455 21.0252 1.21203 21.7147 1.21203 22.4897ZM2.61496 25.1331C1.21193 25.1331 0 23.9541 0 22.4897C0 21.0252 1.21203 19.8748 2.61496 19.8748C3.19018 19.8748 3.70169 20.0197 4.1474 20.3336V19.9318H5.42523V25.0167H4.1475V24.7006C3.76549 24.9882 3.19018 25.1331 2.61496 25.1331ZM19.6619 18.1337L13.5341 7.44573L17.9383 4.85938L25.5986 18.1337M7.08507 22.4897C7.08507 23.2932 7.72408 23.9541 8.5539 23.9541C9.31792 23.9541 10.0227 23.2932 10.0227 22.4897C10.0227 21.7147 9.31792 21.0252 8.5539 21.0252C7.72398 21.0252 7.08507 21.7147 7.08507 22.4897ZM8.4902 25.1331C7.02137 25.1331 5.87314 23.9541 5.87314 22.4897C5.87314 21.0252 7.02137 19.8748 8.4902 19.8748C9.06322 19.8748 9.57483 20.0197 10.0227 20.3336V18.1798H11.2984V25.0167H10.0226V24.7006C9.57473 24.9882 9.06332 25.1331 8.4902 25.1331ZM8.4273 12.0714L12.8952 9.54438L17.8111 18.1334H13.15V19.398H11.8743V18.1334M29.1723 19.4378C28.8518 19.4378 28.5335 19.1502 28.5335 18.8055C28.5335 18.4608 28.8518 18.1732 29.1723 18.1732C29.5543 18.1732 29.8113 18.4609 29.8113 18.8055C29.8113 19.1501 29.5543 19.4378 29.1723 19.4378ZM29.1723 18.2611C28.8518 18.2611 28.6608 18.5179 28.6608 18.8055C28.6608 19.0931 28.8518 19.3522 29.1723 19.3522C29.4907 19.3522 29.6817 19.0932 29.6817 18.8055C29.6817 18.5178 29.4907 18.2611 29.1723 18.2611Z" fill="black"/>
<path d="M29.304 19.1523L29.1766 18.8647H29.0493V19.1523H28.9527V18.4629H29.2403C29.304 18.4629 29.4313 18.5508 29.4313 18.6649C29.4313 18.779 29.3676 18.8362 29.304 18.8647L29.4313 19.1523M29.1766 18.5508H29.0493V18.7791H29.1766C29.304 18.7791 29.304 18.7506 29.304 18.6649C29.304 18.6057 29.304 18.5508 29.1766 18.5508ZM20.7413 22.4896C20.7413 23.2931 21.3803 23.954 22.2101 23.954C22.9764 23.954 23.6768 23.2931 23.6768 22.4896C23.6768 21.7146 22.9764 21.0252 22.2101 21.0252C21.3802 21.0252 20.7413 21.7146 20.7413 22.4896ZM22.1443 25.133C20.6777 25.133 19.5294 23.954 19.5294 22.4896C19.5294 21.0252 20.6777 19.8747 22.1442 19.8747C22.7195 19.8747 23.2311 20.0196 23.6768 20.3335V19.9317H24.8909V25.0166H23.6769V24.7005C23.2311 24.9881 22.7196 25.133 22.1443 25.133ZM14.8727 22.4896C14.8727 23.2931 15.5752 23.954 16.3414 23.954C17.1714 23.954 17.8102 23.2931 17.8102 22.4896C17.8102 21.7146 17.1713 21.0252 16.3414 21.0252C15.5752 21.0252 14.8727 21.7146 14.8727 22.4896ZM17.8102 18.1797H19.0859V25.0166H17.8102V24.7005C17.426 24.9881 16.9145 25.133 16.3414 25.133C14.8727 25.133 13.6606 23.954 13.6606 22.4896C13.6606 21.0252 14.8727 19.8747 16.3414 19.8747C16.9144 19.8747 17.426 20.0196 17.8102 20.3335V18.1797Z" fill="black"/>
</g>
<defs>
<clipPath id="clip0_3171_31883">
<rect width="30" height="30" fill="white"/>
</clipPath>
</defs>
</svg>
