<svg width="30" height="20" viewBox="0 0 30 20" fill="" xmlns="http://www.w3.org/2000/svg">
    <path d="M12.0151 17.0156L11.0043 19.3322C10.6157 20.2226 9.38431 20.2226 8.99567 19.3322L7.98485 17.0156C7.08507 14.9541 5.46596 13.3129 3.44613 12.4161L0.663519 11.1804C-0.221173 10.7875 -0.221173 9.49996 0.663519 9.10709L3.35893 7.90975C5.43065 6.98971 7.07904 5.28785 7.96313 3.15599L8.98722 0.687082C9.36711 -0.229028 10.6323 -0.229028 11.0125 0.687082L12.0366 3.15599C12.9207 5.28785 14.569 6.98971 16.6408 7.90975L19.3365 9.10709C20.2212 9.49996 20.2212 10.7875 19.3365 11.1804L16.5539 12.4164C14.5337 13.3129 12.9146 14.9541 12.0151 17.0156Z" fill=""/>
    <path d="M25.8913 8.905L25.5832 9.61188C25.3575 10.1294 24.6415 10.1294 24.4162 9.61188L24.108 8.905C23.5589 7.64497 22.5691 6.64172 21.3347 6.09283L20.3851 5.67086C19.8716 5.44254 19.8716 4.69575 20.3851 4.46775L21.2817 4.06933C22.5482 3.50637 23.5553 2.46584 24.0953 1.16296L24.4116 0.399156C24.632 -0.133052 25.3676 -0.133052 25.5881 0.399156L25.9047 1.16296C26.4447 2.46584 27.4518 3.50637 28.7183 4.06933L29.6149 4.46775C30.1284 4.69607 30.1284 5.44287 29.6149 5.67086L28.6653 6.09283C27.4299 6.64139 26.4405 7.64497 25.8913 8.905Z" fill=""/>
</svg>
