<svg width="51" height="10" viewBox="0 0 51 10" fill="none" xmlns="http://www.w3.org/2000/svg">
<path fill-rule="evenodd" clip-rule="evenodd" d="M49.1406 0.0914509C49.3385 0.0914509 49.5325 0.142016 49.7215 0.243686C49.908 0.343365 50.0614 0.495255 50.1629 0.680763C50.2681 0.869849 50.3211 1.06754 50.3211 1.2733C50.3211 1.47665 50.2692 1.67246 50.1651 1.85993C50.0644 2.04451 49.9129 2.19638 49.7285 2.29754C49.5493 2.39947 49.3467 2.45322 49.1406 2.45355C48.9344 2.45317 48.7318 2.39942 48.5526 2.29754C48.368 2.19642 48.2161 2.04457 48.115 1.85993C48.0129 1.68125 47.9589 1.47911 47.9584 1.2733C47.9584 1.06754 48.0114 0.869849 48.1171 0.680763C48.2191 0.495132 48.3729 0.343244 48.5599 0.243686C48.7376 0.145088 48.9373 0.0927408 49.1406 0.0914509ZM49.1406 0.286991C48.9746 0.286991 48.8132 0.329757 48.6562 0.414752C48.4991 0.499746 48.3762 0.621591 48.2874 0.779207C48.1986 0.937361 48.1545 1.10197 48.1545 1.2733C48.1545 1.44302 48.1981 1.60602 48.2852 1.76202C48.3719 1.91803 48.4937 2.03987 48.6502 2.12702C48.7996 2.21213 48.9684 2.25716 49.1403 2.25774C49.3122 2.2571 49.481 2.21207 49.6304 2.12702C49.7841 2.04256 49.9104 1.91592 49.9945 1.76202C50.0812 1.60602 50.1242 1.44302 50.1242 1.2733C50.1242 1.1017 50.0806 0.937092 49.9924 0.779207C49.9042 0.621591 49.7813 0.499746 49.6236 0.414752C49.466 0.329757 49.3052 0.286991 49.1406 0.286991ZM48.6225 1.92583V0.655212H49.0585C49.2083 0.655212 49.3165 0.666508 49.3832 0.689909C49.4499 0.713309 49.5029 0.754462 49.5429 0.812828C49.5822 0.871733 49.6024 0.933596 49.6024 0.999225C49.6024 1.09229 49.5693 1.17298 49.5031 1.24157C49.4364 1.31069 49.3488 1.34889 49.239 1.35776C49.2842 1.37632 49.3205 1.39865 49.3471 1.425C49.398 1.4753 49.4606 1.55922 49.5351 1.6773L49.6901 1.92583H49.4394L49.3264 1.72544C49.2377 1.56836 49.1667 1.46965 49.1121 1.43011C49.0747 1.4008 49.0195 1.38627 48.9477 1.38627H48.8275V1.92583H48.6225ZM48.8275 1.2109H49.0766C49.1952 1.2109 49.2761 1.19261 49.3197 1.15738C49.3408 1.14056 49.3576 1.11906 49.3689 1.0946C49.3802 1.07013 49.3856 1.04337 49.3848 1.01644C49.3849 0.980378 49.374 0.945153 49.3533 0.915574C49.3316 0.885473 49.3015 0.862457 49.2667 0.849409C49.2293 0.834346 49.161 0.827353 49.0601 0.827353H48.8275V1.2109ZM26.3674 0.0137181H26.4067V2.72924H23.6632V0.0137181H26.3674ZM14.4273 5.75623L20.7726 6.14973C21.0364 6.14973 21.2521 6.36572 21.2521 6.62931C21.2521 6.8929 21.0364 7.10888 20.7726 7.10888H11.7295V3.57407C12.0074 4.66556 12.9638 5.55827 14.4273 5.75623ZM11.7295 9.83973H20.9746C22.3221 9.83973 23.4537 8.8674 23.703 7.5898C23.923 8.8631 25.0368 9.83973 26.3677 9.83973H32.2745C33.5941 9.83973 34.7009 8.87897 34.9333 7.62073V9.83973H44.404C45.9328 9.83973 47.1835 8.58902 47.1835 7.05966V6.66615C47.1835 5.13733 45.9328 3.88662 44.404 3.88662L43.8844 3.86376C40.9378 3.73411 38.0001 3.58564 35.0573 3.43367C35.2865 4.58836 36.2609 5.54966 37.7868 5.75623L44.2017 6.14973C44.3289 6.15008 44.4507 6.20071 44.5406 6.29055C44.6306 6.3804 44.6814 6.50217 44.6819 6.62931C44.6814 6.75644 44.6306 6.87821 44.5406 6.96806C44.4507 7.0579 44.3289 7.10852 44.2017 7.10888H34.9785V3.42964L32.2353 3.28816V6.43511C32.2347 6.6473 32.1501 6.85064 32.0001 7.00068C31.8501 7.15072 31.6467 7.23526 31.4345 7.23583H27.2077C26.9955 7.23533 26.7921 7.15081 26.642 7.00076C26.492 6.8507 26.4074 6.64732 26.4069 6.43511V2.98745L23.6632 2.84597V5.96549C23.3496 4.78552 22.2602 3.93476 20.9746 3.93476L8.89161 3.1448V9.84L11.7295 9.83973ZM23.2272 2.73058V0H14.4273C13.1282 0 12.0302 0.902933 11.7295 2.11249V0.0134493H6.4768L4.6868 2.72924H11.6486L23.2272 2.73058ZM7.73289 3.07756L3.39413 9.83973H0L4.57733 2.89546L7.73289 3.07756ZM47.1833 2.73058V0H37.7865C36.2747 0 35.035 1.22355 35.0075 2.72924L47.1833 2.73058ZM32.235 2.72924V0.0137181H34.9782V2.72924H32.235Z" fill="black"/>
</svg>
