<svg width="39" height="38" viewBox="0 0 39 38" fill="none" xmlns="http://www.w3.org/2000/svg">
<rect width="38.9987" height="38.0013" rx="19.0007" fill="#F3F2F1"/>
<path d="M21.8375 26.0013C21.6881 26.0018 21.5405 25.9688 21.4055 25.9048C21.2705 25.8407 21.1516 25.7473 21.0575 25.6313L16.2275 19.6313C16.0804 19.4523 16 19.2279 16 18.9963C16 18.7646 16.0804 18.5402 16.2275 18.3613L21.2275 12.3613C21.3972 12.157 21.6411 12.0286 21.9056 12.0042C22.17 11.9799 22.4333 12.0615 22.6375 12.2313C22.8417 12.401 22.9701 12.6449 22.9945 12.9093C23.0189 13.1738 22.9372 13.437 22.7675 13.6413L18.2975 19.0013L22.6175 24.3613C22.7398 24.508 22.8174 24.6868 22.8413 24.8763C22.8652 25.0659 22.8343 25.2583 22.7522 25.4308C22.6702 25.6034 22.5404 25.7488 22.3783 25.8499C22.2162 25.9509 22.0285 26.0035 21.8375 26.0013Z" fill="black"/>
</svg>
