<svg width="30" height="30" viewBox="0 0 30 30" fill="none" xmlns="http://www.w3.org/2000/svg">
    <rect x="18" width="12" height="10" rx="5" fill="#EDA789"/>
    <path d="M24.6275 2.90909V8H23.5511V3.93075H23.5213L22.3555 4.66158V3.70703L23.6158 2.90909H24.6275Z"
         fill="#98350A"/>
    <path d="M15 6.25L15 3.75" stroke="#6B7280" stroke-linecap="round"/>
    <path d="M12.5 20L11.875 16.25" stroke="#6B7280" stroke-linecap="round"/>
    <path d="M17.5 20L18.125 16.25" stroke="#6B7280" stroke-linecap="round"/>
    <path d="M2.5 11.25H27.5H27.0883C25.4923 11.25 24.6942 11.25 24.1377 11.7145C23.5811 12.179 23.4383 12.9641 23.1528 14.5345L21.8472 21.7155C21.5617 23.2859 21.4189 24.071 20.8623 24.5355C20.3058 25 19.5077 25 17.9117 25H12.0883C10.4923 25 9.69422 25 9.13766 24.5355C8.58109 24.071 8.43834 23.2859 8.15283 21.7155L6.84717 14.5345C6.56166 12.9641 6.41891 12.179 5.86234 11.7145C5.30578 11.25 4.50775 11.25 2.91169 11.25H2.5Z"
          stroke="#6B7280" stroke-linecap="round"/>
</svg>
