<svg width="24" height="24" viewBox="0 0 24 24" fill="none" xmlns="http://www.w3.org/2000/svg">
<path d="M12.884 2.52956C12.538 1.87556 11.462 1.87556 11.116 2.52956L2.11596 19.5296C2.03494 19.6819 1.99478 19.8527 1.99938 20.0252C2.00398 20.1977 2.05319 20.3661 2.14221 20.5139C2.23124 20.6618 2.35704 20.784 2.50736 20.8688C2.65768 20.9535 2.82739 20.9979 2.99996 20.9976H21C21.1724 20.9979 21.342 20.9536 21.4922 20.8689C21.6424 20.7842 21.7681 20.662 21.8571 20.5142C21.946 20.3665 21.9951 20.1982 21.9997 20.0258C22.0042 19.8534 21.964 19.6828 21.883 19.5306L12.884 2.52956ZM13 17.9976H11V15.9976H13V17.9976ZM11 13.9976V8.99756H13L13.001 13.9976H11Z" fill="#F8F8F8"/>
</svg>
