<svg width="25" height="20" viewBox="0 0 25 20" fill="none" xmlns="http://www.w3.org/2000/svg">
    <path d="M24.5 2.5C24.5 1.125 23.42 0 22.1 0H2.9C1.58 0 0.5 1.125 0.5 2.5V17.5C0.5 18.875 1.58 20 2.9 20H22.1C23.42 20 24.5 18.875 24.5 17.5V2.5ZM22.1 2.5L12.5 8.75L2.9 2.5H22.1ZM22.1 17.5H2.9V5L12.5 11.25L22.1 5V17.5Z" fill="#333333"/>
    <path d="M24.5 2.5C24.5 1.125 23.42 0 22.1 0H2.9C1.58 0 0.5 1.125 0.5 2.5V17.5C0.5 18.875 1.58 20 2.9 20H22.1C23.42 20 24.5 18.875 24.5 17.5V2.5ZM22.1 2.5L12.5 8.75L2.9 2.5H22.1ZM22.1 17.5H2.9V5L12.5 11.25L22.1 5V17.5Z" fill="black" fill-opacity="0.2"/>
    <path d="M24.5 2.5C24.5 1.125 23.42 0 22.1 0H2.9C1.58 0 0.5 1.125 0.5 2.5V17.5C0.5 18.875 1.58 20 2.9 20H22.1C23.42 20 24.5 18.875 24.5 17.5V2.5ZM22.1 2.5L12.5 8.75L2.9 2.5H22.1ZM22.1 17.5H2.9V5L12.5 11.25L22.1 5V17.5Z" fill="black" fill-opacity="0.2"/>
    <path d="M24.5 2.5C24.5 1.125 23.42 0 22.1 0H2.9C1.58 0 0.5 1.125 0.5 2.5V17.5C0.5 18.875 1.58 20 2.9 20H22.1C23.42 20 24.5 18.875 24.5 17.5V2.5ZM22.1 2.5L12.5 8.75L2.9 2.5H22.1ZM22.1 17.5H2.9V5L12.5 11.25L22.1 5V17.5Z" fill="black" fill-opacity="0.2"/>
    <path d="M24.5 2.5C24.5 1.125 23.42 0 22.1 0H2.9C1.58 0 0.5 1.125 0.5 2.5V17.5C0.5 18.875 1.58 20 2.9 20H22.1C23.42 20 24.5 18.875 24.5 17.5V2.5ZM22.1 2.5L12.5 8.75L2.9 2.5H22.1ZM22.1 17.5H2.9V5L12.5 11.25L22.1 5V17.5Z" fill="black" fill-opacity="0.2"/>
    <path d="M24.5 2.5C24.5 1.125 23.42 0 22.1 0H2.9C1.58 0 0.5 1.125 0.5 2.5V17.5C0.5 18.875 1.58 20 2.9 20H22.1C23.42 20 24.5 18.875 24.5 17.5V2.5ZM22.1 2.5L12.5 8.75L2.9 2.5H22.1ZM22.1 17.5H2.9V5L12.5 11.25L22.1 5V17.5Z" fill="black" fill-opacity="0.2"/>
    <path d="M24.5 2.5C24.5 1.125 23.42 0 22.1 0H2.9C1.58 0 0.5 1.125 0.5 2.5V17.5C0.5 18.875 1.58 20 2.9 20H22.1C23.42 20 24.5 18.875 24.5 17.5V2.5ZM22.1 2.5L12.5 8.75L2.9 2.5H22.1ZM22.1 17.5H2.9V5L12.5 11.25L22.1 5V17.5Z" fill="black" fill-opacity="0.2"/>
    <path d="M24.5 2.5C24.5 1.125 23.42 0 22.1 0H2.9C1.58 0 0.5 1.125 0.5 2.5V17.5C0.5 18.875 1.58 20 2.9 20H22.1C23.42 20 24.5 18.875 24.5 17.5V2.5ZM22.1 2.5L12.5 8.75L2.9 2.5H22.1ZM22.1 17.5H2.9V5L12.5 11.25L22.1 5V17.5Z" fill="black" fill-opacity="0.2"/>
    <path d="M24.5 2.5C24.5 1.125 23.42 0 22.1 0H2.9C1.58 0 0.5 1.125 0.5 2.5V17.5C0.5 18.875 1.58 20 2.9 20H22.1C23.42 20 24.5 18.875 24.5 17.5V2.5ZM22.1 2.5L12.5 8.75L2.9 2.5H22.1ZM22.1 17.5H2.9V5L12.5 11.25L22.1 5V17.5Z" fill="black" fill-opacity="0.2"/>
    <path d="M24.5 2.5C24.5 1.125 23.42 0 22.1 0H2.9C1.58 0 0.5 1.125 0.5 2.5V17.5C0.5 18.875 1.58 20 2.9 20H22.1C23.42 20 24.5 18.875 24.5 17.5V2.5ZM22.1 2.5L12.5 8.75L2.9 2.5H22.1ZM22.1 17.5H2.9V5L12.5 11.25L22.1 5V17.5Z" fill="black" fill-opacity="0.2"/>
    <path d="M24.5 2.5C24.5 1.125 23.42 0 22.1 0H2.9C1.58 0 0.5 1.125 0.5 2.5V17.5C0.5 18.875 1.58 20 2.9 20H22.1C23.42 20 24.5 18.875 24.5 17.5V2.5ZM22.1 2.5L12.5 8.75L2.9 2.5H22.1ZM22.1 17.5H2.9V5L12.5 11.25L22.1 5V17.5Z" fill="black" fill-opacity="0.2"/>
    <path d="M24.5 2.5C24.5 1.125 23.42 0 22.1 0H2.9C1.58 0 0.5 1.125 0.5 2.5V17.5C0.5 18.875 1.58 20 2.9 20H22.1C23.42 20 24.5 18.875 24.5 17.5V2.5ZM22.1 2.5L12.5 8.75L2.9 2.5H22.1ZM22.1 17.5H2.9V5L12.5 11.25L22.1 5V17.5Z" fill="black" fill-opacity="0.2"/>
</svg>
