<svg width="24" height="24" viewBox="0 0 24 24" fill="none" xmlns="http://www.w3.org/2000/svg">
<path fill-rule="evenodd" clip-rule="evenodd" d="M22 3V22C22 22.278 21.8064 22.533 21.4971 22.663C21.1879 22.793 20.8145 22.776 20.5254 22.619L17.3888 20.916L14.4232 22.609C14.0674 22.813 13.5822 22.794 13.2528 22.564L11 20.997L8.7472 22.564C8.41783 22.794 7.93257 22.813 7.5768 22.609L4.6112 20.916L1.47463 22.619C1.18549 22.776 0.812114 22.793 0.502857 22.663C0.1936 22.533 0 22.278 0 22V3C0 2.034 0.984343 1.25 2.2 1.25H19.8C21.0157 1.25 22 2.034 22 3ZM5.97143 10.75H16.0286C16.549 10.75 16.9714 10.414 16.9714 10C16.9714 9.586 16.549 9.25 16.0286 9.25H5.97143C5.45097 9.25 5.02857 9.586 5.02857 10C5.02857 10.414 5.45097 10.75 5.97143 10.75ZM5.97143 6.75H16.0286C16.549 6.75 16.9714 6.414 16.9714 6C16.9714 5.586 16.549 5.25 16.0286 5.25H5.97143C5.45097 5.25 5.02857 5.586 5.02857 6C5.02857 6.414 5.45097 6.75 5.97143 6.75ZM5.97143 14.75H11C11.5205 14.75 11.9429 14.414 11.9429 14C11.9429 13.586 11.5205 13.25 11 13.25H5.97143C5.45097 13.25 5.02857 13.586 5.02857 14C5.02857 14.414 5.45097 14.75 5.97143 14.75Z" fill="#F15A32"/>
</svg>
