<svg width="24" height="24" viewBox="0 0 24 24" fill="none" xmlns="http://www.w3.org/2000/svg">
<g clip-path="url(#clip0_2924_18667)">
<path d="M23.5202 17.4853L15.112 2.92159C13.7386 0.515719 10.2657 0.515719 8.89725 2.92159L0.484103 17.4853C-0.88927 19.8912 0.820036 22.88 3.59148 22.88H20.3832C23.1546 22.88 24.8936 19.8615 23.5202 17.4853ZM11.9997 19.6491C11.2685 19.6491 10.6609 19.0414 10.6609 18.3103C10.6609 17.5791 11.2685 16.9715 11.9997 16.9715C12.7308 16.9715 13.3385 17.5791 13.3088 18.3449C13.3434 19.0414 12.7012 19.6491 11.9997 19.6491ZM13.2199 10.9939C13.1606 12.0313 13.0964 13.0638 13.0371 14.1012C13.0075 14.4372 13.0075 14.7435 13.0075 15.0745C12.9779 15.6228 12.5481 16.0477 11.9997 16.0477C11.4513 16.0477 11.0265 15.6525 10.9919 15.1041C10.903 13.4887 10.8091 11.9029 10.7202 10.2874C10.6905 9.86256 10.6609 9.43277 10.6263 9.00791C10.6263 8.3064 11.0215 7.7284 11.6638 7.54561C12.306 7.39247 12.9433 7.69876 13.2199 8.3064C13.3138 8.51883 13.3434 8.73126 13.3434 8.97827C13.3138 9.65508 13.2496 10.3269 13.2199 10.9939Z" fill="#F15A32"/>
</g>
<defs>
<clipPath id="clip0_2924_18667">
<rect width="24" height="24" fill="white"/>
</clipPath>
</defs>
</svg>
