<svg width="24" height="24" viewBox="0 0 24 24" fill="" xmlns="http://www.w3.org/2000/svg">
    <g clip-path="url(#clip0_2590_19203)">
        <path d="M0.232495 9.65703C0.441256 8.6216 0.788105 7.61889 1.26374 6.67578L5.15062 9.69266C4.64229 11.1901 4.64229 12.8134 5.15062 14.3108C3.85562 15.3108 2.55999 16.3158 1.26374 17.3258C0.0734021 14.9564 -0.289632 12.2567 0.232495 9.65703Z" fill="#F8BD00"/>
        <path d="M13.1267 0.789921C10.7287 1.6218 8.66069 3.20073 7.2264 5.2948C5.79211 7.38887 5.06715 9.88769 5.158 12.4242C5.24884 14.9608 6.15071 17.4013 7.73112 19.3874C9.31154 21.3735 11.4872 22.8005 13.9385 23.4587C15.9259 23.9715 18.0081 23.994 20.006 23.5243C21.816 23.1177 23.4894 22.2481 24.8623 21.0005C26.2912 19.6624 27.3284 17.9602 27.8623 16.0768C28.4424 14.0286 28.5457 11.8748 28.1642 9.78055H17.0042V14.4099H23.4673C23.3381 15.1483 23.0613 15.853 22.6534 16.4819C22.2456 17.1107 21.715 17.6509 21.0935 18.0699C20.3044 18.5922 19.4147 18.9435 18.4817 19.1012C17.5459 19.2752 16.5861 19.2752 15.6504 19.1012C14.702 18.9053 13.8047 18.5138 13.016 17.9518C11.7488 17.0548 10.7973 15.7804 10.2973 14.3105C9.78896 12.8131 9.78896 11.1898 10.2973 9.69242C10.6532 8.64283 11.2416 7.68717 12.0185 6.8968C12.9077 5.9757 14.0333 5.31729 15.272 4.99381C16.5106 4.67034 17.8145 4.69429 19.0404 5.06305C19.9982 5.3569 20.874 5.87057 21.5979 6.56305C22.3267 5.83805 23.0542 5.11117 23.7804 4.38242C24.1554 3.99055 24.5642 3.61742 24.9335 3.21617C23.8283 2.18777 22.531 1.38749 21.116 0.861171C18.5392 -0.0744733 15.7197 -0.0996178 13.1267 0.789921Z" fill="#F8F8F8"/>
        <path d="M8.3607 0.786926C10.9536 -0.103217 13.7731 -0.0787348 16.3501 0.856301C17.7653 1.3862 19.062 2.19033 20.1657 3.22255C19.7907 3.6238 19.3951 3.9988 19.0126 4.3888C18.2851 5.11505 17.5582 5.8388 16.832 6.56005C16.108 5.86757 15.2322 5.35391 14.2745 5.06005C13.0489 4.69 11.7451 4.66467 10.5061 4.98682C9.26712 5.30897 8.14079 5.96617 7.2507 6.8863C6.47377 7.67668 5.88538 8.63233 5.52945 9.68193L1.64258 6.67255C3.03384 3.9136 5.44273 1.80322 8.3607 0.786926Z" fill="#E33629"/>
        <path d="M12.2391 9.77734H23.3991C23.7807 11.8716 23.6774 14.0254 23.0972 16.0736C22.5633 17.957 21.5261 19.6592 20.0972 20.9973C18.8429 20.0186 17.5829 19.0473 16.3285 18.0686C16.9504 17.6491 17.4812 17.1084 17.8891 16.4788C18.297 15.8493 18.5735 15.1439 18.7022 14.4048H12.2391C12.2372 12.8636 12.2391 11.3205 12.2391 9.77734Z" fill="#587DBD"/>
        <path d="M1.64062 17.3275C2.93687 16.3275 4.2325 15.3225 5.5275 14.3125C6.02851 15.7829 6.98138 17.0573 8.25 17.9537C9.04116 18.5132 9.9403 18.9015 10.89 19.0937C11.8257 19.2678 12.7855 19.2678 13.7213 19.0937C14.6543 18.936 15.544 18.5848 16.3331 18.0625C17.5875 19.0412 18.8475 20.0125 20.1019 20.9913C18.7292 22.2395 17.0558 23.1098 15.2456 23.5169C13.2476 23.9866 11.1655 23.9641 9.17813 23.4512C7.60632 23.0316 6.13814 22.2917 4.86563 21.2781C3.51886 20.2087 2.41882 18.8611 1.64062 17.3275Z" fill="#319F43"/>
    </g>
    <defs>
        <clipPath id="clip0_2590_19203">
            <rect width="24" height="24" fill="white"/>
        </clipPath>
    </defs>
</svg>
