<svg width="63" height="16" viewBox="0 0 63 16" fill="none" xmlns="http://www.w3.org/2000/svg">
<path fill-rule="evenodd" clip-rule="evenodd" d="M8.11276 15.28C3.24941 15.2787 0 11.8327 0 7.65394C0 3.47489 3.2577 -0.0109151 8.1058 2.56848e-05H53.9208C58.7689 -0.0109151 62.0266 3.47489 62.0266 7.65394C62.0266 11.8327 58.7766 15.2787 53.9129 15.28H8.11276Z" fill="#CC2131"/>
<path fill-rule="evenodd" clip-rule="evenodd" d="M8.12785 1.875C4.27769 1.88163 1.91382 4.45537 1.91382 7.63848C1.91382 10.8213 4.26244 13.4152 8.12785 13.401H53.8975C57.7625 13.4152 60.1125 10.8213 60.1125 7.63848C60.1125 4.45537 57.7483 1.88196 53.8975 1.875H8.12785Z" fill="white"/>
<path fill-rule="evenodd" clip-rule="evenodd" d="M6.15456 4.02476H8.39444L11.496 9.04029L11.4943 4.02476H13.7173V11.2185H11.4973L8.38018 6.20264V11.2185H6.15356L6.15456 4.02476ZM25.8075 4.76542H27.9725V5.73318H29.1438V6.44367H27.9725L27.9738 11.2185H25.8075L25.8085 6.44367H24.6329V5.73385H25.8092L25.8075 4.76542ZM14.9559 6.43505H17.1192V11.2185H14.9559V6.43505ZM14.9513 4.02344H17.1192V5.49414H14.9513V4.02344ZM53.7311 8.78832C53.7311 8.78832 53.7297 9.51041 53.7297 9.80117C53.7297 10.5634 53.2798 10.8787 52.8452 10.8787C52.4125 10.8787 51.9593 10.5634 51.9593 9.80117C51.9593 9.51041 51.9607 8.77041 51.9607 8.77041C51.9607 8.77041 51.9626 8.06324 51.9626 7.77248C51.9626 7.01326 52.4139 6.70095 52.8452 6.70095C53.2765 6.70095 53.7297 7.01326 53.7297 7.77248C53.7297 8.06324 53.7297 8.59868 53.7311 8.79163V8.78832ZM52.8621 6.10816C51.1169 6.10816 49.7022 7.31098 49.7022 8.79495C49.7022 10.2779 51.1172 11.4804 52.8621 11.4804C54.6093 11.4804 56.024 10.2779 56.024 8.79495C56.024 7.31098 54.6093 6.10816 52.8621 6.10816ZM46.8622 4.02476H48.997V11.2172H46.8589L46.8576 10.942C46.0308 11.4612 45.0951 11.4599 44.3671 11.1214C44.1721 11.0302 42.8874 10.4135 42.8874 8.75019C42.8874 7.48636 44.0796 6.10815 45.6375 6.24475C46.1511 6.2905 46.5155 6.47749 46.8619 6.67144L46.8622 4.02476ZM46.8778 8.80257V7.94787C46.8778 7.20787 46.3676 7.01956 46.0307 7.01956C45.6856 7.01956 45.1817 7.20787 45.1817 7.94787C45.1817 8.19188 45.183 8.80059 45.183 8.80059C45.183 8.80059 45.1817 9.3957 45.1817 9.65065C45.1817 10.39 45.6856 10.5829 46.0307 10.5829C46.3676 10.5829 46.8778 10.39 46.8778 9.65065V8.80257ZM22.1828 6.21392C22.9911 6.1917 24.6329 6.72117 24.621 8.61559C24.6186 8.9511 24.6203 11.2175 24.6203 11.2175H22.4713V8.07617C22.4713 7.65876 22.0724 7.19494 21.4836 7.19494C20.8938 7.19494 20.4562 7.65876 20.4562 8.07617L20.4585 11.2175H18.3104L18.3088 6.43439L20.4581 6.43273C20.4581 6.43273 20.4558 6.81798 20.4581 6.93534C20.9242 6.49016 21.5386 6.23318 22.1828 6.21392ZM39.7633 6.21392C40.5703 6.1917 42.2118 6.72117 42.2015 8.61559C42.1982 8.9511 42.1995 11.2175 42.1995 11.2175H40.0504V8.07617C40.0504 7.65876 39.6523 7.19494 39.0628 7.19494C38.4733 7.19494 38.0344 7.65876 38.0344 8.07617L38.0377 11.2175H35.8903L35.8916 6.43439L38.0377 6.43273C38.0377 6.43273 38.0344 6.81798 38.0377 6.93534C38.504 6.48985 39.1187 6.23284 39.7633 6.21392ZM31.1592 8.10203C31.1553 7.68363 31.1639 7.40381 31.3011 7.16311C31.4715 6.86871 31.7822 6.72846 32.0633 6.72714H32.062C32.3451 6.72846 32.6538 6.86871 32.8229 7.16311C32.9602 7.40348 32.9681 7.68363 32.9648 8.10203H31.1592ZM32.9555 9.54489C32.9555 9.54489 32.9575 9.56611 32.9575 9.83565C32.9575 10.7106 32.382 10.9055 32.0633 10.9055C31.7434 10.9055 31.1576 10.7106 31.1576 9.83565C31.1576 9.57274 31.1609 8.84766 31.1609 8.84766C31.1609 8.84766 35.2345 8.84899 35.2345 8.84766C35.2345 7.3637 33.8029 6.13468 32.0434 6.13468C30.285 6.13468 28.8584 7.3375 28.8584 8.81982C28.8584 10.3041 30.285 11.5069 32.0434 11.5069C33.5029 11.5069 34.7352 10.6734 35.1128 9.5429L32.9555 9.54489ZM56.1745 5.7365H55.9252V4.09836H56.5501C56.9361 4.09836 57.1284 4.24126 57.1284 4.56385C57.1284 4.85659 56.9443 4.98424 56.703 5.01507L57.1685 5.7365H56.8913L56.4586 5.02601H56.1745V5.7365ZM56.4709 4.81548C56.6814 4.81548 56.8678 4.8009 56.8678 4.54893C56.8678 4.34636 56.6838 4.30823 56.5124 4.30823H56.1742V4.81548H56.4709Z" fill="#CC2131"/>
<path fill-rule="evenodd" clip-rule="evenodd" d="M55.0303 4.93163C55.0303 4.1167 55.692 3.51562 56.4731 3.51562C57.2476 3.51562 57.9074 4.11704 57.9074 4.93163C57.9074 5.75484 57.2476 6.35559 56.4731 6.35559C55.692 6.35559 55.0303 5.75517 55.0303 4.93163ZM56.4731 6.11887C57.116 6.11887 57.6219 5.61559 57.6219 4.93163C57.6219 4.25993 57.1163 3.75201 56.4731 3.75201C55.8236 3.75201 55.3167 4.25993 55.3167 4.93163C55.3167 5.61592 55.8236 6.11887 56.4731 6.11887Z" fill="#CC2131"/>
</svg>
