<svg width="55" height="10" viewBox="0 0 55 10" fill="none" xmlns="http://www.w3.org/2000/svg">
<path fill-rule="evenodd" clip-rule="evenodd" d="M53.1951 7.61733C53.0857 7.61528 52.9769 7.63506 52.8752 7.67552C52.7736 7.71597 52.681 7.77629 52.6029 7.85294C52.5248 7.9296 52.4627 8.02105 52.4204 8.12196C52.378 8.22287 52.3562 8.3312 52.3562 8.44064C52.3562 8.55007 52.378 8.65841 52.4204 8.75932C52.4627 8.86022 52.5248 8.95168 52.6029 9.02833C52.681 9.10498 52.7736 9.1653 52.8752 9.20575C52.9769 9.24621 53.0857 9.26599 53.1951 9.26394C53.3032 9.26383 53.4103 9.24238 53.5101 9.20082C53.6099 9.15926 53.7006 9.09841 53.7769 9.02175C53.8532 8.9451 53.9136 8.85414 53.9546 8.7541C53.9957 8.65406 54.0166 8.5469 54.0162 8.43876C54.0162 8.3309 53.995 8.22409 53.9538 8.12443C53.9125 8.02478 53.8521 7.93422 53.7758 7.85794C53.6996 7.78166 53.609 7.72115 53.5094 7.67987C53.4097 7.63858 53.3029 7.61733 53.1951 7.61733ZM53.1951 9.16491C53.0998 9.16502 53.0054 9.1463 52.9174 9.10983C52.8293 9.07335 52.7494 9.01984 52.6821 8.95236C52.6148 8.88488 52.5615 8.80477 52.5252 8.71663C52.489 8.62849 52.4706 8.53406 52.4709 8.43876C52.471 8.34377 52.4897 8.24972 52.5262 8.162C52.5626 8.07427 52.616 7.9946 52.6832 7.92752C52.7505 7.86045 52.8303 7.8073 52.9182 7.77112C53.006 7.73493 53.1001 7.71643 53.1951 7.71665C53.2899 7.71665 53.3838 7.73533 53.4714 7.77163C53.559 7.80792 53.6385 7.86111 53.7056 7.92817C53.7726 7.99523 53.8258 8.07484 53.862 8.16244C53.8983 8.25005 53.9169 8.34395 53.9169 8.43876C53.9173 8.53388 53.899 8.62816 53.863 8.71618C53.8269 8.80421 53.7738 8.88425 53.7068 8.95171C53.6397 9.01917 53.56 9.07273 53.4722 9.10932C53.3844 9.1459 53.2902 9.1648 53.1951 9.16491Z" fill="black"/>
<path fill-rule="evenodd" clip-rule="evenodd" d="M53.618 8.21283C53.618 8.13517 53.5837 8.05345 53.5149 8.01448C53.4456 7.97348 53.3683 7.96944 53.2906 7.96944H52.8896V8.88961H53.0019V8.46518H53.2089L53.4716 8.88961H53.6053L53.3273 8.46518C53.4913 8.46056 53.618 8.39386 53.618 8.21283ZM53.1742 8.37654H53.0016V8.05115H53.2643C53.3787 8.05115 53.504 8.06847 53.504 8.21081C53.5043 8.39819 53.3033 8.37654 53.1742 8.37654ZM48.3695 3.76413L50.0528 1.96681C50.1504 1.83486 50.1989 1.74247 50.1989 1.66336C50.1989 1.53141 50.0854 1.47857 49.7286 1.47857H49.3039V0.343874H53.901V1.47857H53.2969C52.5994 1.47857 52.4697 1.58396 51.4964 2.81104L48.8335 5.68676V7.44164C48.8335 7.89061 49.0602 8.04855 49.7092 8.04855H50.7146V9.1434H44.2757V8.04855H45.281C45.9295 8.04855 46.1567 7.89061 46.1567 7.44164V5.68676L43.0203 2.21713C42.502 1.61052 42.5736 1.47857 41.1306 1.47857V0.343874H46.9536V1.47857H46.539C46.1172 1.47857 45.9385 1.55768 45.9385 1.7159C45.9385 1.84814 46.0681 1.95352 46.1492 2.05891L47.7361 3.78838C47.9246 3.98443 48.1547 4.00984 48.3695 3.76413ZM9.29989 0.343586H10.7045V3.50976H9.4073C9.29238 2.87687 8.89625 2.63059 8.53505 2.29855C7.8834 1.69973 6.4721 1.2011 5.28514 1.2011C3.75316 1.2011 2.46024 1.67635 2.46024 2.37507C2.46024 4.31473 11.2217 2.7712 11.2217 6.43861C11.2217 8.35142 9.34493 9.42 5.97462 9.42C4.80788 9.42 3.04231 9.05794 2.00059 8.50474C1.67404 8.3162 1.53545 8.68317 1.47424 9.14311H0.0340698V5.87126H1.33681C1.62409 6.7025 2.01993 6.87372 2.38402 7.20373C3.01575 7.78436 4.51944 8.20677 5.8984 8.1932C7.97752 8.1727 8.69241 7.71824 8.69241 7.0585C8.69241 6.39905 7.98532 6.24054 5.70697 5.88454L3.7725 5.56781C1.58944 5.23779 0 4.74984 0 3.00853C0 1.2011 2.01069 0.0664059 5.18986 0.0664059C6.52956 0.0664059 7.65039 0.245418 8.72619 0.853477C9.02416 1.04721 9.30364 1.07031 9.29989 0.343586ZM36.7128 5.64461L36.7405 2.12561C36.7405 1.66393 36.5003 1.50571 35.814 1.50571H35.0075V0.410857H40.1382V1.50571H39.4695C38.7826 1.50571 38.5424 1.66422 38.5424 2.12561V9.2101L36.5343 9.19422L30.0311 3.03596V7.50834C30.0311 7.95702 30.2713 8.12824 30.9576 8.12824H31.8503V9.2101H26.5219V8.12824H27.4048C28.0911 8.12824 28.3313 7.95673 28.3313 7.50834V2.12561C28.3313 1.66393 28.0911 1.50571 27.4048 1.50571H26.5219V0.410857H31.1288L36.7128 5.64461ZM19.5269 0C15.4379 0 12.8784 1.80772 12.8784 4.70971C12.8784 7.55973 15.4024 9.35359 19.4022 9.35359C23.6505 9.35359 26.1217 7.58601 26.1217 4.56477C26.122 1.84727 23.4553 0 19.5269 0ZM19.4339 8.20619C17.1706 8.20619 15.8696 6.89999 15.8696 4.64388C15.8696 2.4409 17.2272 1.1347 19.5471 1.1347C21.7726 1.1347 23.0736 2.46746 23.0736 4.73656C23.0736 6.95283 21.7535 8.20619 19.4339 8.20619Z" fill="black"/>
</svg>
