<svg width="33" height="21" viewBox="0 0 33 21" fill="none" xmlns="http://www.w3.org/2000/svg">
<path d="M17.4555 0.0547314C17.3496 0.0706693 17.2475 0.460759 17.0432 0.664453C16.893 0.81081 16.7066 0.802257 16.6071 0.983405C16.5692 1.05085 16.5812 1.16669 16.5385 1.27787C16.4547 1.49983 16.1606 1.51946 16.1606 1.76164C16.1599 2.02306 16.4059 2.07301 16.6193 2.25844C16.7857 2.40732 16.8017 2.51033 17.004 2.58283C17.176 2.64133 17.4326 2.44969 17.6631 2.51869C17.8526 2.57506 18.0339 2.61568 18.0769 2.81004C18.1144 2.98964 18.0742 3.26758 17.8446 3.23531C17.7675 3.22657 17.4312 3.11384 17.019 3.15737C16.521 3.21413 15.9536 3.37662 15.8975 3.93153C15.8671 4.24134 16.2504 4.60714 16.6211 4.53289C16.8773 4.48236 16.7562 4.18031 16.8955 4.03357C17.078 3.84542 18.1144 4.68974 19.0777 4.68974C19.4831 4.68974 19.7852 4.58731 20.0843 4.27341C20.1127 4.24951 20.1463 4.19819 20.1898 4.19489C20.2308 4.19839 20.3016 4.23843 20.3251 4.25553C21.1006 4.87886 21.6874 6.1296 24.5383 6.14417C24.9393 6.1467 25.3957 6.33795 25.7685 6.6779C26.1012 6.98558 26.296 7.4643 26.4853 7.94982C26.7708 8.67791 27.2818 9.38676 28.0569 10.1749C28.0995 10.2171 28.7376 10.7135 28.7885 10.7502C28.7965 10.7557 28.8435 10.8676 28.8272 10.9302C28.8079 11.4033 28.7395 12.7778 29.7644 12.8396C30.0144 12.8525 29.9491 12.676 29.9491 12.5553C29.9487 12.3158 29.9047 12.0777 30.0311 11.8324C30.2041 11.4958 29.6651 11.3405 29.6806 10.6113C29.6923 10.068 29.235 10.1605 29.0041 9.74653C28.8705 9.50649 28.752 9.37918 28.7603 9.08608C28.8128 7.43475 28.4089 6.34962 28.2077 6.08314C28.0503 5.88198 27.9205 5.80229 28.0649 5.70899C28.9195 5.14397 29.1137 4.61861 29.1137 4.61861C29.5685 3.54941 29.9774 2.57292 30.5421 2.14318C30.6556 2.05435 30.9467 1.83647 31.1252 1.75153C31.6521 1.50333 31.9289 1.35289 32.0818 1.2042C32.323 0.968828 32.5151 0.477085 32.283 0.179125C31.9946 -0.188808 31.4958 0.103128 31.2756 0.233741C29.703 1.16689 29.4717 2.81315 28.9267 3.75815C28.4923 4.51365 27.7858 5.06837 27.1541 5.11385C26.6808 5.14903 26.1702 5.0532 25.662 4.83007C24.4258 4.28799 23.7494 3.58828 23.5896 3.46466C23.2575 3.20849 20.679 0.677087 18.5904 0.574074C18.5904 0.574074 18.3311 0.0549259 18.2658 0.0463739C18.1132 0.026743 17.9568 0.356191 17.8448 0.394675C17.7391 0.429272 17.5618 0.0376273 17.4555 0.0547314ZM8.25933 15.1607C8.06263 15.1559 7.89567 14.9946 7.89567 14.7951L7.89606 8.27907H5.74853V15.4616C5.74853 15.8138 6.03366 16.1009 6.38391 16.1009H10.1375C10.4897 16.1009 10.7715 15.8136 10.7715 15.4616V8.27907H8.62571L8.62396 14.7951C8.62415 14.9946 8.4568 15.1559 8.25933 15.1607ZM15.4491 8.27907H12.1993C12.1074 8.27923 12.0164 8.29749 11.9316 8.33283C11.8468 8.36817 11.7698 8.41988 11.7049 8.48501C11.6401 8.55014 11.5888 8.62742 11.5538 8.71241C11.5189 8.7974 11.501 8.88845 11.5013 8.98034V16.1009H13.651V9.56965C13.6513 9.52223 13.6609 9.47532 13.6793 9.43162C13.6977 9.38791 13.7245 9.34826 13.7582 9.31493C13.792 9.28161 13.832 9.25526 13.8759 9.2374C13.9198 9.21955 13.9668 9.21052 14.0143 9.21086C14.2149 9.21086 14.3758 9.36557 14.3805 9.56402V16.1011H16.5208V9.56382C16.5239 9.36538 16.6845 9.21066 16.8848 9.21066C17.0833 9.21066 17.2473 9.36926 17.2489 9.56946V16.1009H19.3988V8.98034C19.399 8.88842 19.381 8.79736 19.346 8.71237C19.311 8.62737 19.2596 8.5501 19.1948 8.48498C19.1299 8.41985 19.0528 8.36815 18.968 8.33282C18.8831 8.29749 18.7921 8.27923 18.7002 8.27907H15.4491ZM4.31606 14.1355H2.14656V16.1009H0V8.27907H4.32967C4.71723 8.27907 5.01986 8.59414 5.01986 8.98345V13.4301C5.02014 13.5227 5.00214 13.6144 4.96689 13.7C4.93164 13.7856 4.87983 13.8634 4.81444 13.929C4.74905 13.9945 4.67137 14.0465 4.58584 14.0819C4.50032 14.1173 4.40864 14.1355 4.31606 14.1355ZM2.87485 9.58307C2.87552 9.53474 2.86664 9.48676 2.84873 9.44188C2.83083 9.39699 2.80424 9.35608 2.77049 9.32148C2.73675 9.28689 2.69651 9.25929 2.65208 9.24027C2.60765 9.22126 2.5599 9.21119 2.51158 9.21066H2.14656V13.167H2.51158C2.7007 13.167 2.8766 13.0165 2.87485 12.7994V9.58307ZM27.7312 15.1738C27.7312 15.7052 27.3051 16.1372 26.7778 16.1372C26.6514 16.1374 26.5262 16.1125 26.4094 16.0641C26.2926 16.0157 26.1865 15.9447 26.0973 15.8552C26.008 15.7657 25.9374 15.6594 25.8893 15.5424C25.8413 15.4255 25.8169 15.3002 25.8175 15.1738C25.8175 14.6501 26.2456 14.2119 26.7623 14.2119C27.3045 14.2113 27.7312 14.6365 27.7312 15.1738ZM26.764 14.3518C26.3323 14.3518 25.9702 14.7244 25.9702 15.1763C25.9702 15.6297 26.3323 15.9992 26.7772 15.9992C27.2186 15.9992 27.5766 15.6297 27.5766 15.1763C27.5766 14.7236 27.2186 14.3518 26.7772 14.3518H26.764Z" fill="black"/>
<path d="M27.2282 15.7254H26.9722L26.6428 15.2867V15.7254H26.4336V14.6165H26.6531C26.9526 14.6165 27.1112 14.7293 27.1112 14.9456C27.1112 15.0898 27.0175 15.2173 26.8869 15.2562L26.8713 15.2616L27.2282 15.7254ZM26.6787 15.1067C26.8276 15.1067 26.9069 15.054 26.9069 14.9483C26.9069 14.8542 26.8303 14.8056 26.685 14.8056H26.6422V15.1071L26.6787 15.1067ZM23.0025 16.0953V14.1314H22.2723V16.0953H20.1273V8.97471C20.1273 8.58598 20.4402 8.27344 20.8254 8.27344H24.4496C24.5415 8.27351 24.6326 8.29172 24.7175 8.32702C24.8024 8.36232 24.8795 8.41402 24.9444 8.47916C25.0093 8.54429 25.0607 8.62159 25.0957 8.70662C25.1307 8.79166 25.1486 8.88275 25.1483 8.97471V16.0953H23.0025ZM23.0025 13.1629V9.5611C22.9973 9.36207 22.8365 9.20892 22.6363 9.20892C22.5408 9.20875 22.4491 9.2462 22.3809 9.31317C22.3128 9.38013 22.2738 9.47122 22.2723 9.56674V13.1629H23.0025ZM0.0603027 20.0399V17.891H0.299954V18.0929C0.35632 18.014 0.420266 17.9544 0.491598 17.9149C0.562541 17.8758 0.648839 17.8554 0.750297 17.8554C0.883048 17.8554 0.999861 17.8902 1.10132 17.9577C1.20317 18.0265 1.27955 18.1227 1.33106 18.2469C1.38315 18.3713 1.4088 18.5075 1.4088 18.6558C1.4088 18.8146 1.38043 18.9581 1.32309 19.0854C1.26614 19.2125 1.18334 19.3099 1.0745 19.3779C0.972093 19.4435 0.853095 19.4787 0.731444 19.4791C0.643396 19.4791 0.565067 19.4605 0.495291 19.4237C0.428767 19.3895 0.370219 19.3416 0.323472 19.2832V20.0395L0.0603027 20.0399ZM0.298594 18.6764C0.298594 18.876 0.339022 19.0241 0.419877 19.1198C0.500733 19.2152 0.599276 19.263 0.713951 19.263C0.830764 19.263 0.931251 19.2136 1.01463 19.1139C1.09802 19.0152 1.14 18.8618 1.14 18.6543C1.14 18.456 1.09899 18.3083 1.01774 18.2094C0.936304 18.111 0.838927 18.0616 0.726196 18.0616C0.613853 18.0616 0.514533 18.1141 0.428041 18.2189C0.341354 18.3242 0.298594 18.477 0.298594 18.6764ZM4.24206 19.4449V19.2166C4.12058 19.3923 3.95654 19.4797 3.74876 19.4797C3.65741 19.4797 3.5715 19.4622 3.492 19.4271C3.4127 19.3921 3.35381 19.3476 3.31533 19.2947C3.27428 19.2363 3.24649 19.1696 3.23389 19.0994C3.22339 19.0475 3.21795 18.9656 3.21795 18.8531V17.8908H3.48112V18.7524C3.48112 18.8902 3.48676 18.9827 3.49725 19.0305C3.51416 19.0999 3.54934 19.154 3.6026 19.1938C3.65663 19.2333 3.72291 19.2531 3.80182 19.2531C3.88073 19.2531 3.95459 19.2329 4.02417 19.1925C4.09356 19.1522 4.14235 19.0968 4.17092 19.0272C4.19988 18.9573 4.21446 18.856 4.21446 18.7236V17.8916H4.47763V19.4449H4.24206ZM6.38765 19.4449V17.8916H6.62283V18.1091C6.67167 18.033 6.73857 17.9701 6.81758 17.9262C6.89863 17.8797 6.99096 17.8562 7.09417 17.8562C7.20903 17.8562 7.30349 17.8803 7.37677 17.9281C7.45063 17.9761 7.50272 18.0424 7.53265 18.1283C7.65607 17.947 7.81584 17.8562 8.01254 17.8562C8.16686 17.8562 8.28523 17.8993 8.36822 17.9845C8.45102 18.0696 8.49262 18.2012 8.49262 18.3785V19.4449H8.231V18.4663C8.231 18.3608 8.22245 18.2848 8.20554 18.2385C8.18776 18.192 8.15509 18.1527 8.11264 18.1268C8.06507 18.0977 8.01016 18.0828 7.95442 18.084C7.84499 18.084 7.75461 18.1205 7.68231 18.1932C7.6104 18.2657 7.57386 18.3821 7.57386 18.5419V19.4449H7.31069V18.4358C7.31069 18.3184 7.28931 18.2305 7.24616 18.1722C7.2032 18.1139 7.13323 18.0846 7.03547 18.0846C6.96161 18.0846 6.89319 18.1042 6.83022 18.1437C6.76724 18.1825 6.72137 18.2395 6.69338 18.3145C6.66501 18.3899 6.65082 18.498 6.65082 18.6395V19.4453H6.38765V19.4449ZM11.3943 19.2529C11.2965 19.3359 11.2026 19.3942 11.1127 19.4284C11.0197 19.463 10.9212 19.4803 10.8221 19.4795C10.6512 19.4795 10.5204 19.4379 10.4287 19.3548C10.3373 19.271 10.2913 19.1645 10.2913 19.0348C10.2913 18.9582 10.3082 18.8891 10.3432 18.8261C10.3756 18.7655 10.4222 18.7136 10.479 18.6749C10.5354 18.6372 10.5984 18.608 10.6687 18.5888C10.7458 18.5707 10.8239 18.5575 10.9025 18.5493C11.1152 18.5238 11.272 18.4939 11.3723 18.4581C11.3733 18.4222 11.3739 18.3993 11.3739 18.3897C11.3739 18.2824 11.349 18.2068 11.299 18.1631C11.2322 18.103 11.1319 18.0737 10.9995 18.0737C10.8757 18.0737 10.7844 18.0951 10.7247 18.1386C10.6658 18.1821 10.6225 18.2589 10.5939 18.3693L10.3368 18.3338C10.3603 18.2243 10.3988 18.1349 10.4522 18.0675C10.5057 17.9993 10.5836 17.9472 10.6849 17.9104C10.7861 17.8739 10.9035 17.8554 11.0374 17.8554C11.1702 17.8554 11.2775 17.8714 11.3605 17.9023C11.4435 17.9337 11.5043 17.9724 11.5438 18.0199C11.5828 18.0673 11.6096 18.1269 11.6256 18.1994C11.6341 18.2442 11.6386 18.325 11.6386 18.442V18.7932C11.6386 19.0383 11.644 19.1934 11.6555 19.2576C11.6666 19.3225 11.6889 19.3849 11.722 19.4444H11.4468C11.4177 19.3843 11.3999 19.3194 11.3943 19.2529ZM11.3721 18.6648C11.2763 18.7042 11.1331 18.7371 10.9422 18.7647C10.8339 18.7802 10.757 18.7977 10.7125 18.8173C10.6699 18.8347 10.6337 18.8647 10.6087 18.9032C10.5844 18.9404 10.5717 18.9818 10.5717 19.028C10.5717 19.0984 10.5988 19.1569 10.6516 19.2037C10.7043 19.2502 10.7824 19.2733 10.8849 19.2733C10.9861 19.2733 11.0765 19.2517 11.1554 19.207C11.2312 19.1661 11.2921 19.1023 11.3296 19.0247C11.3581 18.9654 11.3719 18.8774 11.3719 18.7615L11.3721 18.6648ZM13.6186 19.4449V19.1446H13.9187V19.4449H13.6186ZM16.888 18.8754L17.1463 18.9097C17.1179 19.0877 17.0458 19.2278 16.9294 19.3283C16.813 19.4294 16.6697 19.4795 16.5001 19.4795C16.2876 19.4795 16.1164 19.4101 15.9873 19.2714C15.8579 19.1326 15.793 18.9336 15.793 18.6737C15.793 18.5062 15.8213 18.3592 15.8767 18.2333C15.9325 18.1075 16.0173 18.013 16.1311 17.9503C16.2444 17.8873 16.372 17.8548 16.5016 17.8558C16.6701 17.8558 16.8087 17.8988 16.9154 17.9841C17.0229 18.0694 17.0915 18.1905 17.122 18.3477L16.866 18.387C16.8414 18.2828 16.7982 18.2043 16.7366 18.1514C16.6748 18.0988 16.6 18.0725 16.5119 18.0725C16.379 18.0725 16.2713 18.12 16.1885 18.2152C16.1057 18.31 16.0639 18.4605 16.0639 18.6661C16.0639 18.8747 16.1041 19.0265 16.1842 19.1213C16.2643 19.2156 16.3685 19.263 16.4971 19.263C16.6002 19.263 16.6868 19.2311 16.756 19.1678C16.8252 19.1048 16.8692 19.0072 16.888 18.8754ZM18.7708 18.6677C18.7708 18.38 18.8505 18.1666 19.011 18.0284C19.1446 17.9137 19.3071 17.8554 19.4993 17.8554C19.7133 17.8554 19.8876 17.9254 20.0231 18.0657C20.1586 18.2057 20.2262 18.3987 20.2262 18.6453C20.2262 18.8455 20.1963 19.0028 20.1362 19.1172C20.0778 19.2305 19.9866 19.3236 19.8746 19.3843C19.7597 19.4477 19.6303 19.4804 19.4991 19.4791C19.282 19.4791 19.1063 19.4098 18.9718 19.27C18.8379 19.131 18.7708 18.9305 18.7708 18.6677ZM19.042 18.6677C19.042 18.8665 19.0853 19.0154 19.1722 19.1145C19.2589 19.214 19.3685 19.2634 19.4999 19.2634C19.6309 19.2634 19.7393 19.2134 19.8264 19.1141C19.9129 19.0146 19.9562 18.8628 19.9562 18.6589C19.9562 18.4669 19.9129 18.3211 19.8256 18.222C19.738 18.1231 19.6297 18.0737 19.4999 18.0737C19.3685 18.0737 19.2593 18.1231 19.1722 18.2216C19.0847 18.32 19.042 18.469 19.042 18.6677ZM22.0328 19.4449V17.8916H22.2678V18.1091C22.3167 18.033 22.3836 17.9701 22.4626 17.9262C22.5434 17.8797 22.6363 17.8562 22.7394 17.8562C22.8542 17.8562 22.9485 17.8803 23.0218 17.9281C23.0958 17.9761 23.1477 18.0424 23.178 18.1283C23.3015 17.947 23.4612 17.8562 23.6581 17.8562C23.8122 17.8562 23.9304 17.8993 24.0132 17.9845C24.0966 18.0696 24.138 18.2012 24.138 18.3785V19.4449H23.8762V18.4663C23.8762 18.3608 23.8674 18.2848 23.8507 18.2385C23.8332 18.1926 23.8021 18.1549 23.7576 18.1268C23.7101 18.0977 23.6553 18.0828 23.5996 18.084C23.4904 18.084 23.4002 18.1205 23.3277 18.1932C23.256 18.2657 23.2192 18.3821 23.2192 18.5419V19.4449H22.9561V18.4358C22.9561 18.3184 22.9347 18.2305 22.8915 18.1722C22.8486 18.1139 22.7788 18.0846 22.6808 18.0846C22.6068 18.0846 22.5388 18.1042 22.4754 18.1437C22.4128 18.1825 22.3668 18.2395 22.3388 18.3145C22.3104 18.3899 22.2962 18.498 22.2962 18.6395V19.4453H22.0328V19.4449Z" fill="black"/>
</svg>
