<svg width="100" height="100" viewBox="0 0 100 100" fill="none" xmlns="http://www.w3.org/2000/svg">
<path opacity="0.9" fill-rule="evenodd" clip-rule="evenodd" d="M100 50C100 77.6142 77.6142 100 50 100C22.3858 100 0 77.6142 0 50C0 22.3858 22.3858 0 50 0C77.6142 0 100 22.3858 100 50ZM69.1669 38.5503L57.3941 50.323L69.1669 62.0958C71.1263 64.0552 71.1454 67.213 69.1792 69.1792C67.2266 71.1318 64.0712 71.1423 62.0958 69.1669L50.323 57.3941L38.5503 69.1669C36.5908 71.1263 33.4331 71.1454 31.4668 69.1792C29.5142 67.2266 29.5038 64.0712 31.4792 62.0958L43.252 50.323L31.4792 38.5503C29.5198 36.5908 29.5006 33.4331 31.4668 31.4668C33.4195 29.5142 36.5748 29.5038 38.5503 31.4792L50.323 43.252L62.0958 31.4792C64.0552 29.5198 67.213 29.5006 69.1792 31.4668C71.1318 33.4195 71.1423 36.5748 69.1669 38.5503Z" fill="#EA001E"/>
</svg>
