<svg width="20" height="20" viewBox="0 0 20 20" fill="none" xmlns="http://www.w3.org/2000/svg">
<rect width="19.3315" height="19.3315" rx="9.66575" fill="#F9DED7"/>
<path fill-rule="evenodd" clip-rule="evenodd" d="M11.6467 7.0429C11.4963 7.08418 11.2984 7.14995 11.0089 7.24646L7.71369 8.34485C6.7621 8.66205 6.7621 10.008 7.71369 10.3252C8.32396 10.5287 8.80284 11.0075 9.00627 11.6178C9.32346 12.5694 10.6694 12.5694 10.9866 11.6178L12.085 8.32262C12.1815 8.03311 12.2473 7.83522 12.2886 7.68479C12.3313 7.52916 12.3321 7.47632 12.3314 7.46566C12.3148 7.21575 12.1157 7.01673 11.8658 7.00006C11.8552 6.99935 11.8023 7.00019 11.6467 7.0429ZM11.3821 6.07855C11.5595 6.02985 11.7468 5.98989 11.9324 6.00227C12.6821 6.05229 13.2792 6.64935 13.3292 7.3991C13.3416 7.58466 13.3016 7.77196 13.2529 7.94943C13.2036 8.12909 13.1291 8.35277 13.0383 8.62512L13.0337 8.63885L11.9353 11.934C11.3142 13.7973 8.67868 13.7973 8.05758 11.934C7.95369 11.6224 7.70913 11.3778 7.39746 11.2739C5.53418 10.6528 5.53418 8.01726 7.39746 7.39617L10.6926 6.29778L10.7064 6.29318C10.9788 6.2024 11.2024 6.12785 11.3821 6.07855Z" fill="#EA4E25"/>
</svg>
