<svg width="24" height="24" viewBox="0 0 24 24" fill="none" xmlns="http://www.w3.org/2000/svg">
<path d="M2.75 3H20.25C21.1688 3 22 3.95 22 5V19C22 20.05 21.1688 21 20.25 21H2.75C1.83125 21 1 20.05 1 19V5C1 3.95 1.83125 3 2.75 3ZM13.25 6V7H20.25V6H13.25ZM13.25 8V9H20.25V8H13.25ZM13.25 10V11H19.375V10H13.25ZM8 13.91C6.25 13.91 2.75 15 2.75 17V18H13.25V17C13.25 15 9.75 13.91 8 13.91ZM8 6C7.30381 6 6.63613 6.31607 6.14384 6.87868C5.65156 7.44129 5.375 8.20435 5.375 9C5.375 9.79565 5.65156 10.5587 6.14384 11.1213C6.63613 11.6839 7.30381 12 8 12C8.69619 12 9.36387 11.6839 9.85616 11.1213C10.3484 10.5587 10.625 9.79565 10.625 9C10.625 8.20435 10.3484 7.44129 9.85616 6.87868C9.36387 6.31607 8.69619 6 8 6Z" fill="#F15A32"/>
</svg>
