<svg width="91" height="91" viewBox="0 0 91 91" fill="none" xmlns="http://www.w3.org/2000/svg">
<path d="M45.5 14.2188C43.9296 14.2188 42.6562 12.9454 42.6562 11.375V5.6875C42.6562 4.11705 43.9296 2.84375 45.5 2.84375C47.0704 2.84375 48.3438 4.11705 48.3438 5.6875V11.375C48.3438 12.9454 47.0704 14.2188 45.5 14.2188Z" fill="#78909C"/>
<path d="M51.1875 71.0938H39.8125C38.2421 71.0938 36.9688 72.3671 36.9688 73.9375V79.625C36.9688 84.3294 40.7956 88.1562 45.5 88.1562C50.2044 88.1562 54.0312 84.3294 54.0312 79.625V73.9375C54.0312 72.3671 52.7579 71.0938 51.1875 71.0938Z" fill="#FFB300"/>
<path d="M75.7759 63.2234L73.2766 60.7241C72.1546 59.6021 71.0938 57.0402 71.0938 55.4531V34.125C71.0938 20.0132 59.6118 8.53125 45.5 8.53125C31.3882 8.53125 19.9062 20.0132 19.9062 34.125V55.4531C19.9062 57.0402 18.8454 59.6021 17.7234 60.7241L15.2241 63.2234C13.0302 65.4174 11.375 69.4122 11.375 72.5156V73.9375C11.375 75.5079 12.6483 76.7812 14.2188 76.7812H76.7812C78.3517 76.7812 79.625 75.5079 79.625 73.9375V72.5156C79.625 69.4122 77.9698 65.4174 75.7759 63.2234Z" fill="#FFCA28"/>
<path d="M85.3125 88.1562C84.5849 88.1562 83.8573 87.8785 83.3019 87.3231L3.67688 7.69812C2.56604 6.58728 2.56604 4.78772 3.67688 3.67688C4.78772 2.56604 6.58728 2.56604 7.69812 3.67688L87.3231 83.3019C88.434 84.4127 88.434 86.2123 87.3231 87.3231C86.7677 87.8785 86.0401 88.1562 85.3125 88.1562Z" fill="#F15A32"/>
<path opacity="0.1" d="M87.3315 87.3315C86.7621 87.8716 86.0512 88.1562 85.3125 88.1562C84.5738 88.1562 83.8629 87.8716 83.2935 87.3315L72.7711 76.7812H54.0312V79.625C54.0312 84.3169 50.1919 88.1562 45.5 88.1562V2.84375C47.0635 2.84375 48.3438 4.12399 48.3438 5.6875V8.70204C61.1129 10.1239 71.0938 20.9865 71.0938 34.125V55.4531C71.0938 57.0458 72.1463 59.6049 73.2835 60.7143L75.7857 63.2165C77.9754 65.4062 79.625 69.4164 79.625 72.5156V73.9375C79.625 74.4207 79.4834 74.847 79.2556 75.2455L87.3315 83.2935C88.4409 84.403 88.4409 86.222 87.3315 87.3315Z" fill="black"/>
</svg>
