<svg width="29" height="29" viewBox="0 0 29 29" fill="none" xmlns="http://www.w3.org/2000/svg">
<g clip-path="url(#clip0_2888_17579)">
<path d="M22.0531 25.6268C22.3582 26.1731 22.1626 26.8632 21.6163 27.1681C21.2597 27.3672 20.8905 27.5533 20.5187 27.7212C20.3675 27.7895 20.209 27.8218 20.0532 27.8218C19.6216 27.8218 19.2093 27.5739 19.0201 27.155C18.7626 26.5848 19.0161 25.9138 19.5863 25.6563C19.8996 25.5148 20.211 25.3579 20.5118 25.19C21.0581 24.8851 21.7482 25.0806 22.0531 25.6268ZM25.9644 21.562C25.4624 21.1886 24.7528 21.2929 24.3794 21.7947C24.174 22.0708 23.9542 22.3416 23.7261 22.5996C23.3118 23.0683 23.3558 23.7842 23.8245 24.1986C24.0401 24.3892 24.3077 24.4827 24.5744 24.4827C24.8877 24.4827 25.1997 24.3534 25.4235 24.1002C25.6937 23.7947 25.9539 23.474 26.1971 23.147C26.5706 22.6451 26.4664 21.9354 25.9644 21.562ZM27.8589 16.2494C27.248 16.1164 26.6441 16.5041 26.5111 17.1153C26.4379 17.4516 26.3494 17.7885 26.2479 18.1168C26.0632 18.7146 26.3981 19.3488 26.9958 19.5335C27.1072 19.5679 27.2198 19.5843 27.3306 19.5843C27.8143 19.5843 28.2623 19.272 28.4126 18.7855C28.533 18.396 28.638 17.9961 28.7249 17.5972C28.8579 16.986 28.4702 16.3825 27.8589 16.2494ZM13.3672 5.4375V14.0308L9.21322 18.1847C8.77086 18.6271 8.77086 19.3444 9.21322 19.7867C9.43446 20.008 9.72429 20.1185 10.0143 20.1185C10.3042 20.1185 10.5941 20.0079 10.8154 19.7867L15.3011 15.301C15.5135 15.0886 15.6328 14.8004 15.6328 14.5V5.4375C15.6328 4.81185 15.1257 4.30469 14.5 4.30469C13.8743 4.30469 13.3672 4.81185 13.3672 5.4375ZM27.8672 2.43555C27.2415 2.43555 26.7344 2.94271 26.7344 3.56836V6.71395C24.0976 2.57873 19.4929 0 14.5 0C10.6269 0 6.98566 1.50828 4.24691 4.24691C1.50828 6.98566 0 10.6269 0 14.5C0 18.3731 1.50828 22.0143 4.24691 24.7531C6.98566 27.4917 10.6269 29 14.5 29C14.5096 29 14.5188 28.9988 14.5283 28.9986C14.5378 28.9988 14.5471 29 14.5566 29C14.9649 29 15.3772 28.9828 15.7822 28.9489C16.4056 28.8967 16.8687 28.349 16.8165 27.7255C16.7643 27.1021 16.2173 26.6388 15.5931 26.6912C15.2508 26.7198 14.9021 26.7344 14.5566 26.7344C14.5471 26.7344 14.5378 26.7356 14.5283 26.7358C14.5188 26.7356 14.5096 26.7344 14.5 26.7344C7.75393 26.7344 2.26562 21.2461 2.26562 14.5C2.26562 7.75393 7.75393 2.26562 14.5 2.26562C18.8476 2.26562 22.8464 4.58296 25.0315 8.26953H21.9167C21.291 8.26953 20.7839 8.77669 20.7839 9.40234C20.7839 10.028 21.291 10.5352 21.9167 10.5352H25.375C26.0649 10.5352 26.7103 10.3413 27.2598 10.0054C27.2952 9.98523 27.3292 9.96354 27.3616 9.94015C28.3474 9.29155 29 8.1759 29 6.91016V3.56836C29 2.94271 28.4928 2.43555 27.8672 2.43555Z" fill="#0B4158"/>
</g>
<defs>
<clipPath id="clip0_2888_17579">
<rect width="29" height="29" fill="white"/>
</clipPath>
</defs>
</svg>
