<svg width="21" height="20" viewBox="0 0 21 20" fill="none" xmlns="http://www.w3.org/2000/svg">
    <path d="M20.6158 10C20.6158 15.3748 16.065 19.75 10.4285 19.75C4.79204 19.75 0.241211 15.3748 0.241211 10C0.241211 4.6252 4.79204 0.25 10.4285 0.25C16.065 0.25 20.6158 4.6252 20.6158 10Z" fill="#F8F8F8"/>
    <path d="M20.6158 10C20.6158 15.3748 16.065 19.75 10.4285 19.75C4.79204 19.75 0.241211 15.3748 0.241211 10C0.241211 4.6252 4.79204 0.25 10.4285 0.25C16.065 0.25 20.6158 4.6252 20.6158 10Z" stroke="#333333" stroke-width="0.5"/>
    <path d="M20.6158 10C20.6158 15.3748 16.065 19.75 10.4285 19.75C4.79204 19.75 0.241211 15.3748 0.241211 10C0.241211 4.6252 4.79204 0.25 10.4285 0.25C16.065 0.25 20.6158 4.6252 20.6158 10Z" stroke="black" stroke-opacity="0.2" stroke-width="0.5"/>
    <path d="M20.6158 10C20.6158 15.3748 16.065 19.75 10.4285 19.75C4.79204 19.75 0.241211 15.3748 0.241211 10C0.241211 4.6252 4.79204 0.25 10.4285 0.25C16.065 0.25 20.6158 4.6252 20.6158 10Z" stroke="black" stroke-opacity="0.2" stroke-width="0.5"/>
    <path d="M20.6158 10C20.6158 15.3748 16.065 19.75 10.4285 19.75C4.79204 19.75 0.241211 15.3748 0.241211 10C0.241211 4.6252 4.79204 0.25 10.4285 0.25C16.065 0.25 20.6158 4.6252 20.6158 10Z" stroke="black" stroke-opacity="0.2" stroke-width="0.5"/>
    <path d="M20.6158 10C20.6158 15.3748 16.065 19.75 10.4285 19.75C4.79204 19.75 0.241211 15.3748 0.241211 10C0.241211 4.6252 4.79204 0.25 10.4285 0.25C16.065 0.25 20.6158 4.6252 20.6158 10Z" stroke="black" stroke-opacity="0.2" stroke-width="0.5"/>
    <path d="M20.6158 10C20.6158 15.3748 16.065 19.75 10.4285 19.75C4.79204 19.75 0.241211 15.3748 0.241211 10C0.241211 4.6252 4.79204 0.25 10.4285 0.25C16.065 0.25 20.6158 4.6252 20.6158 10Z" stroke="black" stroke-opacity="0.2" stroke-width="0.5"/>
    <path d="M20.6158 10C20.6158 15.3748 16.065 19.75 10.4285 19.75C4.79204 19.75 0.241211 15.3748 0.241211 10C0.241211 4.6252 4.79204 0.25 10.4285 0.25C16.065 0.25 20.6158 4.6252 20.6158 10Z" stroke="black" stroke-opacity="0.2" stroke-width="0.5"/>
    <path d="M20.6158 10C20.6158 15.3748 16.065 19.75 10.4285 19.75C4.79204 19.75 0.241211 15.3748 0.241211 10C0.241211 4.6252 4.79204 0.25 10.4285 0.25C16.065 0.25 20.6158 4.6252 20.6158 10Z" stroke="black" stroke-opacity="0.2" stroke-width="0.5"/>
    <path d="M20.6158 10C20.6158 15.3748 16.065 19.75 10.4285 19.75C4.79204 19.75 0.241211 15.3748 0.241211 10C0.241211 4.6252 4.79204 0.25 10.4285 0.25C16.065 0.25 20.6158 4.6252 20.6158 10Z" stroke="black" stroke-opacity="0.2" stroke-width="0.5"/>
    <path d="M20.6158 10C20.6158 15.3748 16.065 19.75 10.4285 19.75C4.79204 19.75 0.241211 15.3748 0.241211 10C0.241211 4.6252 4.79204 0.25 10.4285 0.25C16.065 0.25 20.6158 4.6252 20.6158 10Z" stroke="black" stroke-opacity="0.2" stroke-width="0.5"/>
    <path d="M20.6158 10C20.6158 15.3748 16.065 19.75 10.4285 19.75C4.79204 19.75 0.241211 15.3748 0.241211 10C0.241211 4.6252 4.79204 0.25 10.4285 0.25C16.065 0.25 20.6158 4.6252 20.6158 10Z" stroke="black" stroke-opacity="0.2" stroke-width="0.5"/>
    <path d="M20.6158 10C20.6158 15.3748 16.065 19.75 10.4285 19.75C4.79204 19.75 0.241211 15.3748 0.241211 10C0.241211 4.6252 4.79204 0.25 10.4285 0.25C16.065 0.25 20.6158 4.6252 20.6158 10Z" stroke="black" stroke-opacity="0.2" stroke-width="0.5"/>
</svg>
