<svg width="55" height="8" viewBox="0 0 55 8" fill="none" xmlns="http://www.w3.org/2000/svg">
<path fill-rule="evenodd" clip-rule="evenodd" d="M29.9613 3.71482C29.9613 3.71482 29.4297 3.38612 29.101 3.25894C29.101 3.25894 28.0835 2.78737 27.8816 2.56301C27.8816 2.56301 27.4851 2.1893 27.7173 1.75524C27.7173 1.75524 27.8145 1.4712 28.2335 1.4712C28.2335 1.4712 28.7791 1.50121 28.7791 1.94959V2.5821H30.7342L30.7308 1.65056C30.7308 1.65056 30.8812 0.125035 28.4279 0.0578629C28.4279 0.0578629 26.4983 -0.0689816 25.9449 0.970311C25.9449 0.970311 25.7277 1.20218 25.7277 2.0096V2.59301C25.7277 2.59301 25.7055 3.2661 26.0492 3.69982C26.0492 3.69982 26.2436 3.98419 26.7223 4.29789C26.7223 4.29789 27.6944 4.82128 28.2779 5.121C28.2779 5.121 28.8667 5.4572 28.7893 5.99219C28.7893 5.99219 28.7412 6.5415 28.1725 6.519C28.1725 6.519 27.6525 6.49581 27.6525 5.95707V5.3249H25.5691V6.24315C25.5691 6.24315 25.5108 7.99917 28.1878 7.99917C28.1878 7.99917 30.7458 8.051 30.8652 6.19712V5.44936C30.8648 5.44936 30.9555 4.31323 29.9613 3.71482ZM19.9516 0.276428L19.2969 4.37904H19.1438L18.5185 0.313253H15.2526L15.0889 7.74276H17.0226L17.0458 2.14497H17.1979L18.2228 7.74174H20.2571L21.2695 2.14702H21.4041L21.4508 7.74276H23.3948L23.1854 0.276428H19.9516ZM8.44094 0.307457L7.15444 7.73424H9.2361L9.99818 1.97585H10.1693L10.9311 7.73424H13.0124L11.7262 0.307457H8.44094ZM52.1205 3.61253V4.70808H52.6545V5.8841C52.6545 6.45899 52.1632 6.46956 52.1632 6.46956C51.5658 6.46956 51.5883 5.92332 51.5883 5.92332V1.85548C51.5883 1.43642 52.1185 1.41392 52.1185 1.41392C52.6272 1.41392 52.6306 1.91379 52.6306 1.91379V2.53232H54.5906C54.6547 1.32493 54.4139 1.03271 54.4139 1.03271C53.9277 -0.0590911 52.0885 0.000579358 52.0885 0.000579358C49.2621 0.000579358 49.5758 2.16918 49.5758 2.16918V6.10233C49.6365 8.13624 52.4216 7.92961 52.4687 7.92791C53.7074 7.79084 54.0815 7.39701 54.0815 7.39701C54.4259 7.14128 54.5145 6.78701 54.5145 6.78701C54.6131 6.58072 54.6376 5.92332 54.6376 5.92332V3.61253H52.1205ZM45.6239 4.82129H45.5387L43.5498 0.278472H41.1701V7.74344H43.1069L42.9909 3.20131H43.0775L45.1381 7.74344H47.4454V0.277791H45.4841L45.6239 4.82129ZM36.4425 5.88342C36.4425 5.88342 36.4705 6.49615 35.9024 6.49615C35.9024 6.49615 35.305 6.52821 35.305 5.89877L35.2989 0.282905H33.1746V5.8541C33.1746 5.8541 32.9567 7.96269 35.9324 7.96269C35.9324 7.96269 38.5184 7.99338 38.5184 5.95093V0.283246H36.4425V5.88342ZM4.39118 3.71482C4.39118 3.71482 3.86028 3.38612 3.53124 3.25928C3.53124 3.25928 2.51445 2.78805 2.3126 2.56335C2.3126 2.56335 1.91604 2.18896 2.14859 1.75592C2.14859 1.75592 2.24542 1.47189 2.66414 1.47189C2.66414 1.47189 3.21004 1.50155 3.21004 1.94993V2.58244H5.16588L5.16212 1.65056C5.16212 1.65056 5.31147 0.125035 2.85918 0.0582037C2.85918 0.0582037 2.67437 0.0462686 2.40329 0.0599077C2.40329 0.0599077 0.917666 0.139696 0.386427 0.954627C0.383358 0.960764 0.378925 0.965198 0.375857 0.970654C0.375857 0.970654 0.158997 1.20217 0.158997 2.00994V2.59335C0.158997 2.59335 0.136492 3.26644 0.480536 3.70016C0.480536 3.70016 0.674892 3.98453 1.15362 4.29823C1.15362 4.29823 2.1254 4.82163 2.70881 5.12134C2.70881 5.12134 3.29835 5.45686 3.22027 5.99253C3.22027 5.99253 3.17219 6.54184 2.60379 6.51934C2.60379 6.51934 2.0838 6.49616 2.0838 5.95742V5.3249H0.000101597V6.24383C0.000101597 6.24383 -0.058205 7.99986 2.61879 7.99986C2.61879 7.99986 5.17611 8.05168 5.29647 6.1978V5.45073C5.29647 5.45004 5.3858 4.31323 4.39118 3.71482Z" fill="black"/>
</svg>
