<svg width="21" height="21" viewBox="0 0 21 21" fill="none" xmlns="http://www.w3.org/2000/svg">
<path fill-rule="evenodd" clip-rule="evenodd" d="M10.5 21C16.299 21 21 16.299 21 10.5C21 4.70101 16.299 0 10.5 0C4.70101 0 0 4.70101 0 10.5C0 16.299 4.70101 21 10.5 21ZM7.03977 15.7955H14.9943V14.2841H9.57744C9.69093 14.1443 9.78065 13.989 9.84659 13.8182C9.99432 13.4318 10.0568 12.9943 10.0341 12.5057L9.98711 11.2386H12.608V9.72727H9.93107L9.85227 7.60227C9.85227 7.11742 9.94129 6.7197 10.1193 6.40909C10.3011 6.09848 10.536 5.86742 10.8239 5.71591C11.1155 5.56439 11.4223 5.48864 11.7443 5.48864C12.0511 5.48864 12.3409 5.55114 12.6136 5.67614C12.8864 5.80114 13.1004 5.98674 13.2557 6.23295C13.411 6.47917 13.4697 6.78788 13.4318 7.15909L15.0739 7.42045C15.1534 6.9697 15.1269 6.53977 14.9943 6.13068C14.8617 5.72159 14.6402 5.35795 14.3295 5.03977C14.0227 4.7178 13.6439 4.46402 13.1932 4.27841C12.7462 4.0928 12.2424 4 11.6818 4C11.053 4 10.4659 4.13447 9.92045 4.40341C9.375 4.67235 8.9375 5.07386 8.60795 5.60795C8.2822 6.14205 8.13447 6.80682 8.16477 7.60227L8.23553 9.72727H7V11.2386H8.28585L8.32955 12.5511C8.33712 12.767 8.32197 13.0095 8.28409 13.2784C8.24621 13.5436 8.17235 13.7746 8.0625 13.9716C7.95265 14.1686 7.79545 14.2727 7.59091 14.2841H7.03977V15.7955Z" fill="#8045FE"/>
</svg>
