<svg width="86" height="12" viewBox="0 0 86 12" fill="none" xmlns="http://www.w3.org/2000/svg">
<path d="M79.8967 0.25C76.652 0.25 74.022 2.8813 74.022 6.12599C74.022 9.37067 76.652 12.0007 79.8967 12.0007C83.1414 12.0007 85.7714 9.37067 85.7714 6.12599C85.7714 2.8813 83.1414 0.25 79.8967 0.25ZM79.8967 10.8401C77.2972 10.8401 75.1826 8.72549 75.1826 6.12599C75.1826 3.52648 77.2972 1.41063 79.8967 1.41063C82.4962 1.41063 84.6108 3.52648 84.6108 6.12599C84.6108 8.72549 82.4962 10.8401 79.8967 10.8401Z" fill="black"/>
<path d="M82.4037 4.97667C82.4032 4.49328 82.2109 4.02984 81.8691 3.68807C81.5273 3.34629 81.0638 3.1541 80.5804 3.15368H78.0101V9.03889H79.0051V6.80125H80.0227L81.133 9.03889H82.2431L81.0958 6.72557C81.4732 6.61393 81.8044 6.38335 82.0401 6.0682C82.2757 5.75305 82.4033 5.37019 82.4037 4.97667ZM80.5804 5.80628H79.0051V4.14864H80.5804C80.8001 4.14864 81.0109 4.23584 81.1664 4.39109C81.3218 4.54634 81.4094 4.75695 81.4097 4.97667C81.4094 5.19656 81.322 5.40739 81.1665 5.5629C81.0111 5.71842 80.8003 5.80595 80.5804 5.80628ZM7.13456 6.79584C6.96889 6.55736 6.74916 6.3335 6.47347 6.12681C6.19651 5.91885 5.84005 5.72011 5.40442 5.52805L3.63549 4.7633C3.14516 4.56075 2.82718 4.34071 2.679 4.10095C2.52923 3.86246 2.45514 3.56706 2.45514 3.21728C2.45514 3.0462 2.47358 2.88212 2.51078 2.72154C2.54767 2.56255 2.61667 2.42232 2.71874 2.30022C2.81923 2.17843 2.95437 2.07922 3.12544 2.00481C3.29493 1.93072 3.50702 1.89352 3.76268 1.89352C4.20913 1.89352 4.52711 2.03947 4.71917 2.33201C4.90996 2.6236 5.00535 3.04111 5.00535 3.58295H7.2061V3.26497C7.2061 2.72154 7.11866 2.25792 6.9425 1.86967C6.76761 1.48141 6.52371 1.16216 6.20987 0.913178C5.8957 0.662609 5.52493 0.482631 5.09439 0.371337C4.66352 0.258772 4.19323 0.203125 3.68318 0.203125C2.58742 0.203125 1.72759 0.479769 1.09958 1.03242C0.472839 1.58476 0.158991 2.42486 0.158991 3.55116C0.158991 4.01891 0.217182 4.43069 0.335153 4.78715C0.447925 5.13699 0.635536 5.45806 0.884943 5.72806C1.13392 5.99834 1.44523 6.23524 1.81758 6.43684C2.18867 6.6394 2.6313 6.8251 3.14134 6.99458C3.52292 7.12305 3.84472 7.24769 4.10578 7.36948C4.36557 7.49127 4.57608 7.628 4.73507 7.77618C4.89406 7.92595 5.00821 8.09289 5.07817 8.27859C5.14717 8.46525 5.18151 8.68529 5.18151 8.93968C5.18151 9.41792 5.04001 9.77152 4.75892 10.0008C4.47687 10.2288 4.16143 10.3426 3.81038 10.3426C3.51243 10.3426 3.26599 10.3003 3.06852 10.2154C2.87233 10.1305 2.71588 10.0141 2.59823 9.86437C2.48153 9.71587 2.40203 9.53303 2.35974 9.31458C2.31713 9.09708 2.29615 8.85478 2.29615 8.5899V8.25443H0V8.71709C0 9.76897 0.279506 10.5773 0.837246 11.1401C1.39499 11.7033 2.32254 11.9856 3.61959 11.9856C4.86226 11.9856 5.8321 11.7112 6.52912 11.164C7.22486 10.617 7.57305 9.74258 7.57305 8.5422C7.57305 8.19083 7.54126 7.87158 7.47766 7.58539C7.41572 7.3024 7.29918 7.03421 7.13456 6.79584ZM14.3489 8.36604C14.3489 8.65349 14.3302 8.91583 14.2933 9.15559C14.2561 9.39407 14.1871 9.60203 14.0866 9.77692C13.989 9.94793 13.8487 10.0908 13.6796 10.1916C13.5088 10.2924 13.2862 10.3426 13.0093 10.3426C12.7444 10.3426 12.5231 10.2924 12.3482 10.1916C12.1733 10.0908 12.034 9.95181 11.9335 9.77692C11.8327 9.60203 11.7637 9.39407 11.7268 9.15559C11.687 8.89432 11.668 8.63031 11.6699 8.36604V0.425712H9.37506V8.36604C9.37506 9.13174 9.47586 9.75308 9.67714 10.2313C9.87969 10.7096 10.15 11.0794 10.4905 11.3389C10.8324 11.6005 11.2309 11.778 11.654 11.8572C12.0897 11.9417 12.5415 11.9856 13.0093 11.9856C13.477 11.9856 13.9289 11.9367 14.3648 11.8413C14.7914 11.7505 15.1902 11.5592 15.528 11.2832C15.8686 11.0078 16.1401 10.6329 16.3414 10.1598C16.5443 9.68693 16.6448 9.08913 16.6448 8.36572V0.425712H14.3489V8.36572V8.36604ZM25.1892 1.4935C24.9457 1.17551 24.6236 0.916994 24.2248 0.721117C23.8273 0.523651 23.3345 0.425712 22.75 0.425712H18.7329V11.8095H21.0291V7.26487H22.2559C22.7977 7.26487 23.2922 7.19586 23.7386 7.05818C24.1851 6.92049 24.5654 6.71253 24.8792 6.43684C25.1921 6.15988 25.437 5.80469 25.6122 5.36906C25.7883 4.9331 25.8758 4.42147 25.8758 3.83734C25.8758 3.41347 25.8227 2.99596 25.7155 2.58672C25.616 2.19042 25.4369 1.81848 25.1892 1.4935ZM23.157 5.16078C22.8747 5.43774 22.5064 5.57543 22.0492 5.57543H21.0291V2.1161H21.9856C22.5595 2.1161 22.9688 2.2646 23.2127 2.56255C23.4578 2.85955 23.5796 3.2955 23.5796 3.86914C23.5796 4.45454 23.4391 4.88541 23.157 5.16078ZM30.0213 6.86739H33.8479L33.8476 4.98589H30.0213V2.30689H34.0876V0.426984H27.7251V11.8095H34.2466V9.92796H30.0213V6.86739ZM43.6522 11.0606C43.6099 10.7414 43.5781 10.279 43.5568 9.67358C43.546 9.36482 43.5342 9.08531 43.525 8.83633C43.5148 8.60449 43.4989 8.37293 43.4773 8.14186C43.4125 7.50462 43.2481 7.04228 42.9832 6.7561C42.7167 6.46864 42.2967 6.28294 41.723 6.19708V6.16529C42.3711 6.02728 42.8493 5.71725 43.1581 5.23233C43.4652 4.74899 43.6204 4.1248 43.6204 3.3591C43.6204 2.37049 43.354 1.63532 42.8226 1.15166C42.2916 0.668014 41.5481 0.425712 40.5916 0.425712H36.3504V11.8095H38.6453V6.99458H39.8733C40.3519 6.99458 40.6921 7.12177 40.8937 7.37743C41.095 7.63182 41.2076 7.98287 41.2289 8.42963L41.2925 10.6142C41.303 10.8368 41.3243 11.053 41.3561 11.2597C41.3879 11.4676 41.462 11.6505 41.5787 11.8095H44.0669V11.7141C43.8535 11.5974 43.7158 11.3789 43.6522 11.0606ZM40.8778 5.00974C40.5796 5.2708 40.1557 5.40054 39.6018 5.40054H38.6453V2.1161H39.7306C40.7929 2.1161 41.3243 2.64236 41.3243 3.69425C41.3243 4.31145 41.1758 4.74899 40.8778 5.00974ZM52.716 1.93199C52.4526 1.45687 52.056 1.06913 51.5751 0.816512C51.0863 0.556721 50.4437 0.425712 49.6462 0.425712H45.8835V11.8095H49.5031C50.2675 11.8095 50.9009 11.6928 51.4002 11.4581C51.8997 11.225 52.2985 10.8686 52.5955 10.3903C52.8934 9.91207 53.103 9.30377 53.226 8.56446C53.3478 7.82674 53.4089 6.95738 53.4089 5.9586C53.4089 5.11849 53.3612 4.35788 53.2658 3.67835C53.1704 2.9985 52.9863 2.41691 52.716 1.93199ZM51.0412 7.96697C50.9935 8.48782 50.8981 8.90788 50.755 9.22713C50.6106 9.54511 50.4173 9.77438 50.1721 9.91207C49.9282 10.0498 49.6039 10.12 49.1997 10.12H48.1793V2.1161H49.152C49.5877 2.1161 49.9362 2.19846 50.196 2.36254C50.457 2.52821 50.6532 2.7721 50.7855 3.09676C50.9194 3.4211 51.0068 3.82653 51.0491 4.31558C51.0917 4.80432 51.1127 5.37415 51.1127 6.02219C51.1127 6.79839 51.0889 7.44643 51.0412 7.96697ZM62.6252 11.0606C62.5826 10.7414 62.5496 10.279 62.5283 9.67358C62.5178 9.36482 62.5073 9.08531 62.498 8.83633C62.4875 8.60446 62.4711 8.3729 62.4488 8.14186C62.3852 7.50462 62.2211 7.04228 61.9546 6.7561C61.6897 6.46864 61.2697 6.28294 60.696 6.19708V6.16529C61.3438 6.02728 61.8223 5.71725 62.1308 5.23233C62.4383 4.74899 62.5931 4.1248 62.5931 3.3591C62.5931 2.37049 62.327 1.63532 61.7956 1.15166C61.2643 0.668014 60.5199 0.425712 59.5631 0.425712H55.3234V11.8095H57.6183V6.99458H58.8463C59.3246 6.99458 59.6639 7.12177 59.8664 7.37743C60.068 7.63182 60.1793 7.98287 60.2019 8.42963L60.2655 10.6142C60.276 10.8368 60.2973 11.053 60.3291 11.2597C60.3609 11.4676 60.435 11.6505 60.5517 11.8095H63.0399V11.7141C62.8265 11.5974 62.6888 11.3789 62.6252 11.0606ZM59.8509 5.00974C59.5526 5.2708 59.1274 5.40054 58.5748 5.40054H57.6183V2.1161H58.702C59.7659 2.1161 60.2973 2.64236 60.2973 3.69425C60.2973 4.31145 60.1475 4.74899 59.8509 5.00974ZM67.9498 4.8269H67.918L66.4197 0.426984H63.8374L66.7867 7.32973V11.8107H69.0828V7.32973L72.0321 0.426984H69.5439L67.9498 4.8269Z" fill="black"/>
</svg>
