<svg width="24" height="25" viewBox="0 0 24 25" fill="" xmlns="http://www.w3.org/2000/svg">
    <g clip-path="url(#clip0_3598_13581)">
        <path d="M12 11.5C14.2091 11.5 16 9.70914 16 7.5C16 5.29086 14.2091 3.5 12 3.5C9.79086 3.5 8 5.29086 8 7.5C8 9.70914 9.79086 11.5 12 11.5Z" stroke="" stroke-linecap="round" stroke-linejoin="round"/>
        <path d="M8 21.5C6.89543 21.5 6 20.6046 6 19.5V19.5C6 18.4391 6.42143 17.4217 7.17157 16.6716C7.92172 15.9214 8.93913 15.5 10 15.5H14C15.0609 15.5 16.0783 15.9214 16.8284 16.6716C17.5786 17.4217 18 18.4391 18 19.5V19.5" stroke="" stroke-linecap="round" stroke-linejoin="round"/>
    </g>
    <defs>
        <clipPath id="clip0_3598_13581">
            <rect width="24" height="24" fill="" transform="translate(0 0.5)"/>
        </clipPath>
    </defs>
</svg>
