<svg width="30" height="31" viewBox="0 0 30 31" fill="" xmlns="http://www.w3.org/2000/svg">
    <path d="M9.375 10.0889V8.87635C9.375 6.06385 11.6375 3.30135 14.45 3.03885C17.8 2.71385 20.625 5.35135 20.625 8.63885V10.3639" stroke="" stroke-miterlimit="10" stroke-linecap="round" stroke-linejoin="round"/>
    <path d="M11.25 28H18.75C23.775 28 24.675 25.9875 24.9375 23.5375L25.875 16.0375C26.2125 12.9875 25.3375 10.5 20 10.5H10C4.66253 10.5 3.78753 12.9875 4.12503 16.0375L5.06253 23.5375C5.32503 25.9875 6.22503 28 11.25 28Z" stroke="" stroke-miterlimit="10" stroke-linecap="round" stroke-linejoin="round"/>
    <path d="M9.5459 15.8047H10.8878C11.0092 15.8047 11.07 15.8047 11.1249 15.8062C12.7764 15.8516 14.23 16.9077 14.7837 18.4642C14.8021 18.516 14.8209 18.5738 14.8584 18.6893V18.6893C14.8959 18.8048 14.9147 18.8626 14.9331 18.9144C15.4868 20.4709 16.9404 21.527 18.5919 21.5724C18.6468 21.5739 18.7076 21.5739 18.829 21.5739H20.7959M20.7959 21.5739L18.9209 19.8431M20.7959 21.5739L18.9209 23.3047" stroke="" stroke-width="0.8" stroke-linecap="round" stroke-linejoin="round"/>
    <path fill-rule="evenodd" clip-rule="evenodd" d="M18.7512 13.3437C18.9074 13.1875 19.1607 13.1875 19.3169 13.3437L21.2487 15.2755C21.4049 15.4317 21.4049 15.685 21.2487 15.8412L19.3169 17.773C19.1607 17.9293 18.9074 17.9293 18.7512 17.773C18.595 17.6168 18.595 17.3636 18.7512 17.2074L20.0002 15.9584H19.1758C17.3573 15.9584 15.7541 17.1512 15.2316 18.893C14.6075 20.9732 12.6929 22.3978 10.5211 22.3978H9.37498C9.15406 22.3978 8.97498 22.2187 8.97498 21.9978C8.97498 21.7769 9.15406 21.5978 9.37498 21.5978H10.5211C12.3396 21.5978 13.9428 20.4049 14.4653 18.6631C15.0894 16.5829 17.004 15.1584 19.1758 15.1584H20.0002L18.7512 13.9094C18.595 13.7532 18.595 13.4999 18.7512 13.3437Z" fill=""/>
</svg>
