<svg width="35" height="16" viewBox="0 0 35 16" fill="none" xmlns="http://www.w3.org/2000/svg">
<path fill-rule="evenodd" clip-rule="evenodd" d="M22.2181 0.888044V0H18.6654V4.87586H22.2181V4.07159H19.654V2.74791H21.8995V1.87662H19.654V0.888044H22.2181ZM21.2295 5.37853V7.25515H19.2854V5.37853H18.2805V10.2379H19.2854V8.05941H21.2295V10.2379H22.2181V5.37853H21.2295ZM22.2181 11.6114V10.7405H18.6654V15.6829H22.2181V14.7954H19.654V13.4882H21.8995V12.6842H19.654V11.6114H22.2181ZM18.096 0H17.1074V1.87662H15.1638V0H14.1752V4.87586H15.1638V2.69764H17.1074V4.87586H18.096V0ZM9.91928 0V0.888044H11.4273V4.87586H12.4158V0.888044H13.9238V0H9.91928ZM6.80275 5.24448C5.24448 5.24448 4.42346 6.13252 4.42346 7.80808C4.42346 9.56741 5.24448 10.4387 6.80275 10.4387C8.36101 10.4387 9.16528 9.56741 9.16528 7.80808C9.16528 6.13252 8.36101 5.24448 6.80275 5.24448ZM5.49582 7.80808C5.49582 6.68546 5.93146 6.13252 6.80275 6.13252C7.74106 6.13252 8.1767 6.68546 8.1767 7.80808C8.1767 8.99795 7.74106 9.56741 6.80275 9.56741C5.93146 9.56741 5.49582 8.99795 5.49582 7.80808ZM2.99924 5.37853V8.81341L1.0556 5.37853H0V10.2379H0.93831V6.8195L2.93222 10.2379H3.98782V5.37853H2.99924ZM7.60701 12.751V11.6114H10.1036V10.7405H6.61844V15.6829H7.60701V13.6222H9.80199V12.751H7.60701ZM17.9119 6.24981V5.37853H13.9238V6.24981H15.4151V10.2379H16.4204V6.24981H17.9119ZM11.7289 8.378C12.0472 8.378 12.2986 8.42803 12.4158 8.56208L12.6002 10.2379H13.7228V10.1206C13.6055 10.0533 13.5385 9.75195 13.5385 9.18203C13.5385 8.49529 13.2871 8.12643 12.9185 7.94212C13.4212 7.74106 13.6725 7.37243 13.6725 6.75248C13.6725 5.88119 13.1698 5.37853 12.1143 5.37853H9.66794V10.2379H10.6733V8.378H11.7289ZM10.6733 7.55674V6.24981H11.9132C12.4158 6.24981 12.6672 6.43412 12.6672 6.86977C12.6672 7.30541 12.4158 7.55674 11.8629 7.55674H10.6733ZM12.4158 10.7405H11.2262L9.48363 15.6829H10.5392L10.9246 14.6108H12.7342L13.0358 15.6829H14.1082L12.4158 10.7405ZM11.7959 11.8627L12.4158 13.8068H11.1759L11.7959 11.8627ZM17.2919 12.3653H18.2805C18.23 11.9299 18.096 11.5613 17.7941 11.2427C17.3587 10.8741 16.8561 10.6228 16.1691 10.6228C15.4821 10.6228 14.9794 10.8741 14.5438 11.31C14.1752 11.7454 13.9238 12.3653 13.9238 13.1866C13.9238 14.9292 14.6611 15.8 16.1021 15.8C17.3587 15.8 18.0455 15.18 18.2805 13.9906H17.2919C17.1579 14.5601 16.722 14.8619 16.1691 14.8619C15.3481 14.8619 14.9794 14.3092 14.9794 13.2366C14.9794 12.064 15.3481 11.4941 16.1691 11.4941C16.722 11.4941 17.0406 11.8126 17.2919 12.3653ZM4.87586 15.6162C5.04342 15.6162 5.17746 15.5489 5.27823 15.4654C5.362 15.3648 5.42879 15.2308 5.42879 15.0467C5.42879 14.8454 5.36177 14.7114 5.27823 14.6276C5.17769 14.544 5.04365 14.4935 4.87586 14.4935H4.85911C4.65804 14.4935 4.52399 14.544 4.44022 14.6276C4.35667 14.7111 4.30617 14.8454 4.30617 15.0467V15.063C4.30617 15.2308 4.35644 15.3648 4.44022 15.4654C4.52399 15.5489 4.65827 15.6162 4.85911 15.6162H4.87586ZM4.85911 15.7502C4.62453 15.7502 4.45697 15.6667 4.33968 15.5489C4.22239 15.4316 4.17213 15.2643 4.17213 15.063V15.0467C4.17213 14.8117 4.22239 14.6443 4.33968 14.5273C4.45697 14.41 4.62453 14.3595 4.85911 14.3595H4.87586C5.07693 14.3595 5.24448 14.41 5.36177 14.5273C5.47906 14.6446 5.56284 14.8119 5.56284 15.0467C5.56284 15.2645 5.47906 15.4316 5.36177 15.5489C5.29821 15.613 5.2225 15.6639 5.13907 15.6984C5.05564 15.733 4.96616 15.7506 4.87586 15.7502H4.85911ZM4.92613 14.9794H4.94288C5.0099 14.9794 5.04342 14.9457 5.04342 14.8622V14.8454C5.04342 14.8454 5.02666 14.8454 5.02666 14.8286C5.0099 14.8119 4.97639 14.8119 4.92613 14.8119H4.74182V14.9797L4.92613 14.9794ZM5.04342 15.0967L5.17746 15.2645C5.19422 15.2978 5.17746 15.3313 5.1607 15.3481C5.12719 15.3818 5.07693 15.3648 5.06017 15.3481L4.89262 15.1135H4.74182V15.2976C4.74182 15.3313 4.7083 15.3648 4.67479 15.3648C4.64128 15.3648 4.60777 15.3311 4.60777 15.2976V14.7449C4.60777 14.7111 4.64128 14.6781 4.67479 14.6781H4.94288C5.0099 14.6781 5.07693 14.6944 5.11044 14.7281C5.12719 14.7449 5.14395 14.7449 5.14395 14.7619C5.17746 14.7956 5.17746 14.8286 5.17746 14.8624C5.17746 14.9962 5.14395 15.063 5.04342 15.0967ZM22.9048 0C26.0216 0 28.719 1.13938 30.8972 3.31759C33.1424 5.56284 34.2653 8.24372 34.2653 11.3768V15.6829H29.7078V11.2427C29.7078 9.50062 29.0878 7.99239 27.8312 6.75248C27.5293 6.43412 27.2112 6.18279 26.8426 5.93146C25.8373 5.24448 24.6476 4.94288 23.4077 4.94288H22.905L22.9048 0ZM29.2717 15.6829H25.7195V12.2481C25.7195 11.6786 25.5354 11.2427 25.1501 10.8741C24.7814 10.4892 24.2788 10.3047 23.7761 10.3047H22.9048V5.37853H23.4075C24.7142 5.37853 25.8368 5.74715 26.8424 6.50115C27.0937 6.61843 27.345 6.86977 27.5291 7.05408C28.719 8.24395 29.2717 9.61791 29.2717 11.243V15.6829ZM25.2841 15.6829H22.9046V10.7405H23.7761C24.1615 10.7405 24.5301 10.8741 24.8482 11.1759C25.0996 11.4273 25.2841 11.8126 25.2841 12.2481V15.6829Z" fill="black"/>
</svg>
