<svg width="40" height="12" viewBox="0 0 40 12" fill="none" xmlns="http://www.w3.org/2000/svg">
<path d="M38.3433 9.78335V10.0921C38.3433 10.3783 38.2003 10.5214 37.9141 10.5214H36.715C36.4806 10.5214 36.3626 10.4075 36.3626 10.1808V9.55027C37.1191 9.44947 37.8346 9.3315 38.5077 9.19635C38.5249 9.32228 38.5408 9.44947 38.5554 9.55281L39.263 9.41354C39.1726 8.80555 38.9952 8.18295 38.7354 7.56797L38.0785 7.72028C38.179 7.98929 38.2677 8.25449 38.3433 8.51524C38.0572 8.54068 37.771 8.56961 37.4861 8.60268C37.6469 8.13712 37.7901 7.66564 37.9153 7.18925L37.1455 7.05125C37.0322 7.60105 36.8889 8.14424 36.7162 8.67836C36.5999 8.68758 36.4819 8.69967 36.3639 8.71684V6.71101H38.5844V1.05602H35.7413L36.0924 0.158991L34.8602 0L34.4786 1.05602H32.3281V6.71101H33.4649V7.36669C33.4649 8.32604 33.1653 9.13816 32.5678 9.80179C32.3068 8.80969 31.9411 7.75749 31.4708 6.64741L30.5487 7.01309C30.7605 7.54214 30.9585 8.07663 31.1423 8.61604C30.5277 8.73401 29.9009 8.84785 29.2621 8.9566C29.657 7.65287 29.9725 6.38635 30.2081 5.15798H31.887V3.99735H27.7345V5.15798H29.1349C28.8754 6.59685 28.5679 7.91775 28.2144 9.12099L27.6843 9.19635L27.8989 10.4457C29.1775 10.2193 30.3633 9.95824 31.4578 9.66283C31.5423 9.99131 31.6126 10.2908 31.6724 10.5599C31.4788 10.6603 31.2762 10.765 31.0667 10.875L31.9001 11.8092C33.6821 10.8909 34.5711 9.41099 34.5619 7.36669V6.71069H35.2656V10.5093C35.2656 11.2581 35.61 11.6315 36.3003 11.6315H38.2689C38.9593 11.6315 39.304 11.2578 39.304 10.5093V10.0482L38.3433 9.78335ZM33.4397 5.7011V4.41327H34.8812V5.7011H33.4397ZM33.4397 3.45424V2.06561H34.8812V3.45424H33.4397ZM37.4743 2.06561V3.45424H35.9811V2.06561H37.4743ZM37.4743 4.41327V5.7011H35.9811V4.41327H37.4743ZM2.09723 11.8092H3.2461V11.3163H9.62545V11.8092H10.7743V5.46802H2.09723V11.8092ZM9.62545 6.37554V7.18385H3.2461V6.37554H9.62545ZM9.62545 7.98802V8.79633H3.2461V7.98802H9.62545ZM9.62545 9.60178V10.4101H3.2461V9.60178H9.62545ZM11.9229 4.6613V0.42546H0.949951V4.6613H11.9229ZM10.7743 1.33298V2.14129H2.09723V1.33298H10.7743ZM10.7743 2.94674V3.75346H2.09723V2.94674H10.7743ZM22.9397 8.42652H25.2371V5.10774H22.5991V4.07303H23.9744V3.37856C24.3726 3.69224 24.7856 3.9867 25.212 4.26096L26.032 3.26472C24.2568 2.23001 23.0828 1.16604 22.5196 0.0890348H21.4305C20.7748 1.18321 19.6168 2.25926 17.9674 3.30192L18.7372 4.27431C19.1463 3.98857 19.5461 3.68984 19.936 3.37856V4.07303H21.4385V5.10774H18.7V8.42652H20.959C20.3945 9.39382 19.2352 10.2114 17.6783 10.7996L18.5356 11.821C20.2514 11.123 21.4254 10.1637 22.0573 8.94324C22.5024 9.62563 22.9359 10.1557 23.3559 10.5331C23.8949 11.0302 24.5455 11.4489 25.3446 11.7933L26.191 10.7837C25.3497 10.4565 24.5388 10.0336 24.0513 9.63771C23.7057 9.3687 23.3359 8.96455 22.9397 8.42652ZM21.4385 6.53326C21.4385 6.85251 21.4041 7.14823 21.3367 7.41693H19.8104V6.11733H21.4385V6.53326ZM20.2648 3.10032C20.9205 2.49489 21.4798 1.86019 21.9434 1.19529C22.3476 1.85097 22.9066 2.48694 23.6221 3.10032H20.2648ZM22.5991 6.53326V6.11733H24.127V7.41693H22.5355C22.5781 7.13074 22.5991 6.83661 22.5991 6.53326Z" fill="black"/>
</svg>
