<svg width="17" height="20" viewBox="0 0 17 20" fill="none" xmlns="http://www.w3.org/2000/svg">
<path d="M14.007 10.5689C13.9981 8.9302 14.737 7.69336 16.2325 6.78248C15.3957 5.58137 14.1317 4.92054 12.4626 4.79105C10.8825 4.66603 9.15553 5.71533 8.5235 5.71533C7.85587 5.71533 6.32475 4.8357 5.123 4.8357C2.63939 4.87589 0 6.82267 0 10.7832C0 11.9531 0.213644 13.1616 0.640932 14.4089C1.21065 16.0476 3.26697 20.0662 5.41231 19.9992C6.53394 19.9724 7.32621 19.1999 8.78611 19.1999C10.2015 19.1999 10.9359 19.9992 12.1866 19.9992C14.3498 19.9679 16.2102 16.3155 16.7532 14.6723C13.8512 13.3015 14.007 10.6537 14.007 10.5689ZM11.4878 3.2372C12.7029 1.7905 12.5916 0.4733 12.556 0C11.4834 0.0625114 10.2416 0.732276 9.53386 1.55832C8.75495 2.44241 8.29651 3.53636 8.39443 4.76872C9.55612 4.85803 10.6154 4.2597 11.4878 3.2372Z" fill="black"/>
</svg>
