<svg width="4" height="12" viewBox="0 0 4 12" fill="none" xmlns="http://www.w3.org/2000/svg">
<path d="M3.86654 7.51414C3.85319 7.07565 3.77241 6.661 3.66525 6.26479C3.55396 5.86191 3.31134 5.33469 2.93263 4.68665L3.92219 1.53227V0.421875H0.193848V11.8056H1.27912V1.45245H2.91005L1.92272 4.75024C2.33482 5.49877 2.59842 6.07527 2.7059 6.47943C2.80925 6.87404 2.85695 7.22001 2.85695 7.51414C2.85695 7.85852 2.80512 8.10909 2.69255 8.25886C2.58921 8.39781 2.26455 8.46936 1.7386 8.48271L2.55741 9.45924C2.8808 9.40741 3.25983 9.27767 3.45857 9.11582C3.76701 8.86302 3.89166 8.40576 3.86654 7.51414Z" fill="black"/>
</svg>
