<svg width="29" height="28" viewBox="0 0 29 28" fill="none" xmlns="http://www.w3.org/2000/svg">
<path d="M0.0024348 26.3107L1.19474 7.8071C1.21508 7.49138 1.36178 7.19493 1.60493 6.97817C1.84807 6.7614 2.16935 6.64068 2.50323 6.64062H17.263C17.5969 6.64068 17.9182 6.7614 18.1613 6.97817C18.4045 7.19488 18.5512 7.49138 18.5716 7.8071L19.7636 26.3107C19.7745 26.4799 19.7488 26.6494 19.688 26.8088C19.6271 26.9682 19.5325 27.1141 19.4098 27.2376C19.2872 27.361 19.1393 27.4594 18.975 27.5266C18.8108 27.5938 18.6338 27.6285 18.4549 27.6285H1.31115C1.13224 27.6285 0.955222 27.5938 0.790995 27.5266C0.626767 27.4593 0.478801 27.361 0.356207 27.2375C0.233612 27.1141 0.138983 26.9682 0.078142 26.8088C0.0173012 26.6494 -0.00846311 26.4799 0.0024348 26.3107Z" fill="#F15A32"/>
<path d="M13.7111 9.13504C13.6059 9.13504 13.5017 9.11542 13.4045 9.07729C13.3072 9.03915 13.219 8.98322 13.1446 8.91272C13.0701 8.84228 13.0111 8.75859 12.9708 8.6665C12.9306 8.57441 12.9099 8.47567 12.9099 8.37599V4.37033C12.9064 3.61195 12.5859 2.88576 12.0187 2.35067C11.4514 1.81558 10.6834 1.51518 9.88287 1.51518C9.08235 1.51518 8.31443 1.81558 7.74713 2.35067C7.17989 2.88576 6.85938 3.61195 6.8559 4.37033V8.37599C6.8541 8.57622 6.7689 8.7676 6.61886 8.9086C6.46875 9.04954 6.26598 9.12861 6.05469 9.12861C5.84334 9.12861 5.64056 9.04954 5.49049 8.9086C5.34042 8.7676 5.25522 8.57622 5.25342 8.37599V4.37033C5.25776 3.20983 5.74742 2.09826 6.61514 1.2791C7.48288 0.459953 8.65791 0 9.88287 0C11.1079 0 12.2829 0.459953 13.1506 1.2791C14.0184 2.09826 14.508 3.20983 14.5124 4.37033V8.37599C14.5124 8.47567 14.4917 8.57441 14.4514 8.6665C14.4111 8.75859 14.3521 8.84228 14.2777 8.91272C14.2033 8.98322 14.115 9.03915 14.0177 9.07729C13.9205 9.11542 13.8163 9.13504 13.7111 9.13504Z" fill="#C0C0C0"/>
<path d="M13.7111 9.13504C13.6059 9.13504 13.5017 9.11542 13.4045 9.07729C13.3072 9.03915 13.219 8.98322 13.1446 8.91272C13.0701 8.84228 13.0111 8.75859 12.9708 8.6665C12.9306 8.57441 12.9099 8.47567 12.9099 8.37599V4.37033C12.9064 3.61195 12.5859 2.88576 12.0187 2.35067C11.4514 1.81558 10.6834 1.51518 9.88287 1.51518C9.08235 1.51518 8.31443 1.81558 7.74713 2.35067C7.17989 2.88576 6.85938 3.61195 6.8559 4.37033V8.37599C6.8541 8.57622 6.7689 8.7676 6.61886 8.9086C6.46875 9.04954 6.26598 9.12861 6.05469 9.12861C5.84334 9.12861 5.64056 9.04954 5.49049 8.9086C5.34042 8.7676 5.25522 8.57622 5.25342 8.37599V4.37033C5.25776 3.20983 5.74742 2.09826 6.61514 1.2791C7.48288 0.459953 8.65791 0 9.88287 0C11.1079 0 12.2829 0.459953 13.1506 1.2791C14.0184 2.09826 14.508 3.20983 14.5124 4.37033V8.37599C14.5124 8.47567 14.4917 8.57441 14.4514 8.6665C14.4111 8.75859 14.3521 8.84228 14.2777 8.91272C14.2033 8.98322 14.115 9.03915 14.0177 9.07729C13.9205 9.11542 13.8163 9.13504 13.7111 9.13504Z" fill="black" fill-opacity="0.2"/>
<path d="M13.7111 9.13504C13.6059 9.13504 13.5017 9.11542 13.4045 9.07729C13.3072 9.03915 13.219 8.98322 13.1446 8.91272C13.0701 8.84228 13.0111 8.75859 12.9708 8.6665C12.9306 8.57441 12.9099 8.47567 12.9099 8.37599V4.37033C12.9064 3.61195 12.5859 2.88576 12.0187 2.35067C11.4514 1.81558 10.6834 1.51518 9.88287 1.51518C9.08235 1.51518 8.31443 1.81558 7.74713 2.35067C7.17989 2.88576 6.85938 3.61195 6.8559 4.37033V8.37599C6.8541 8.57622 6.7689 8.7676 6.61886 8.9086C6.46875 9.04954 6.26598 9.12861 6.05469 9.12861C5.84334 9.12861 5.64056 9.04954 5.49049 8.9086C5.34042 8.7676 5.25522 8.57622 5.25342 8.37599V4.37033C5.25776 3.20983 5.74742 2.09826 6.61514 1.2791C7.48288 0.459953 8.65791 0 9.88287 0C11.1079 0 12.2829 0.459953 13.1506 1.2791C14.0184 2.09826 14.508 3.20983 14.5124 4.37033V8.37599C14.5124 8.47567 14.4917 8.57441 14.4514 8.6665C14.4111 8.75859 14.3521 8.84228 14.2777 8.91272C14.2033 8.98322 14.115 9.03915 14.0177 9.07729C13.9205 9.11542 13.8163 9.13504 13.7111 9.13504Z" fill="black" fill-opacity="0.2"/>
<path d="M13.7111 9.13504C13.6059 9.13504 13.5017 9.11542 13.4045 9.07729C13.3072 9.03915 13.219 8.98322 13.1446 8.91272C13.0701 8.84228 13.0111 8.75859 12.9708 8.6665C12.9306 8.57441 12.9099 8.47567 12.9099 8.37599V4.37033C12.9064 3.61195 12.5859 2.88576 12.0187 2.35067C11.4514 1.81558 10.6834 1.51518 9.88287 1.51518C9.08235 1.51518 8.31443 1.81558 7.74713 2.35067C7.17989 2.88576 6.85938 3.61195 6.8559 4.37033V8.37599C6.8541 8.57622 6.7689 8.7676 6.61886 8.9086C6.46875 9.04954 6.26598 9.12861 6.05469 9.12861C5.84334 9.12861 5.64056 9.04954 5.49049 8.9086C5.34042 8.7676 5.25522 8.57622 5.25342 8.37599V4.37033C5.25776 3.20983 5.74742 2.09826 6.61514 1.2791C7.48288 0.459953 8.65791 0 9.88287 0C11.1079 0 12.2829 0.459953 13.1506 1.2791C14.0184 2.09826 14.508 3.20983 14.5124 4.37033V8.37599C14.5124 8.47567 14.4917 8.57441 14.4514 8.6665C14.4111 8.75859 14.3521 8.84228 14.2777 8.91272C14.2033 8.98322 14.115 9.03915 14.0177 9.07729C13.9205 9.11542 13.8163 9.13504 13.7111 9.13504Z" fill="black" fill-opacity="0.2"/>
<path d="M13.7111 9.13504C13.6059 9.13504 13.5017 9.11542 13.4045 9.07729C13.3072 9.03915 13.219 8.98322 13.1446 8.91272C13.0701 8.84228 13.0111 8.75859 12.9708 8.6665C12.9306 8.57441 12.9099 8.47567 12.9099 8.37599V4.37033C12.9064 3.61195 12.5859 2.88576 12.0187 2.35067C11.4514 1.81558 10.6834 1.51518 9.88287 1.51518C9.08235 1.51518 8.31443 1.81558 7.74713 2.35067C7.17989 2.88576 6.85938 3.61195 6.8559 4.37033V8.37599C6.8541 8.57622 6.7689 8.7676 6.61886 8.9086C6.46875 9.04954 6.26598 9.12861 6.05469 9.12861C5.84334 9.12861 5.64056 9.04954 5.49049 8.9086C5.34042 8.7676 5.25522 8.57622 5.25342 8.37599V4.37033C5.25776 3.20983 5.74742 2.09826 6.61514 1.2791C7.48288 0.459953 8.65791 0 9.88287 0C11.1079 0 12.2829 0.459953 13.1506 1.2791C14.0184 2.09826 14.508 3.20983 14.5124 4.37033V8.37599C14.5124 8.47567 14.4917 8.57441 14.4514 8.6665C14.4111 8.75859 14.3521 8.84228 14.2777 8.91272C14.2033 8.98322 14.115 9.03915 14.0177 9.07729C13.9205 9.11542 13.8163 9.13504 13.7111 9.13504Z" fill="black" fill-opacity="0.2"/>
<path d="M13.7111 9.13504C13.6059 9.13504 13.5017 9.11542 13.4045 9.07729C13.3072 9.03915 13.219 8.98322 13.1446 8.91272C13.0701 8.84228 13.0111 8.75859 12.9708 8.6665C12.9306 8.57441 12.9099 8.47567 12.9099 8.37599V4.37033C12.9064 3.61195 12.5859 2.88576 12.0187 2.35067C11.4514 1.81558 10.6834 1.51518 9.88287 1.51518C9.08235 1.51518 8.31443 1.81558 7.74713 2.35067C7.17989 2.88576 6.85938 3.61195 6.8559 4.37033V8.37599C6.8541 8.57622 6.7689 8.7676 6.61886 8.9086C6.46875 9.04954 6.26598 9.12861 6.05469 9.12861C5.84334 9.12861 5.64056 9.04954 5.49049 8.9086C5.34042 8.7676 5.25522 8.57622 5.25342 8.37599V4.37033C5.25776 3.20983 5.74742 2.09826 6.61514 1.2791C7.48288 0.459953 8.65791 0 9.88287 0C11.1079 0 12.2829 0.459953 13.1506 1.2791C14.0184 2.09826 14.508 3.20983 14.5124 4.37033V8.37599C14.5124 8.47567 14.4917 8.57441 14.4514 8.6665C14.4111 8.75859 14.3521 8.84228 14.2777 8.91272C14.2033 8.98322 14.115 9.03915 14.0177 9.07729C13.9205 9.11542 13.8163 9.13504 13.7111 9.13504Z" fill="black" fill-opacity="0.2"/>
<path d="M13.7111 9.13504C13.6059 9.13504 13.5017 9.11542 13.4045 9.07729C13.3072 9.03915 13.219 8.98322 13.1446 8.91272C13.0701 8.84228 13.0111 8.75859 12.9708 8.6665C12.9306 8.57441 12.9099 8.47567 12.9099 8.37599V4.37033C12.9064 3.61195 12.5859 2.88576 12.0187 2.35067C11.4514 1.81558 10.6834 1.51518 9.88287 1.51518C9.08235 1.51518 8.31443 1.81558 7.74713 2.35067C7.17989 2.88576 6.85938 3.61195 6.8559 4.37033V8.37599C6.8541 8.57622 6.7689 8.7676 6.61886 8.9086C6.46875 9.04954 6.26598 9.12861 6.05469 9.12861C5.84334 9.12861 5.64056 9.04954 5.49049 8.9086C5.34042 8.7676 5.25522 8.57622 5.25342 8.37599V4.37033C5.25776 3.20983 5.74742 2.09826 6.61514 1.2791C7.48288 0.459953 8.65791 0 9.88287 0C11.1079 0 12.2829 0.459953 13.1506 1.2791C14.0184 2.09826 14.508 3.20983 14.5124 4.37033V8.37599C14.5124 8.47567 14.4917 8.57441 14.4514 8.6665C14.4111 8.75859 14.3521 8.84228 14.2777 8.91272C14.2033 8.98322 14.115 9.03915 14.0177 9.07729C13.9205 9.11542 13.8163 9.13504 13.7111 9.13504Z" fill="black" fill-opacity="0.2"/>
<path d="M13.7111 9.13504C13.6059 9.13504 13.5017 9.11542 13.4045 9.07729C13.3072 9.03915 13.219 8.98322 13.1446 8.91272C13.0701 8.84228 13.0111 8.75859 12.9708 8.6665C12.9306 8.57441 12.9099 8.47567 12.9099 8.37599V4.37033C12.9064 3.61195 12.5859 2.88576 12.0187 2.35067C11.4514 1.81558 10.6834 1.51518 9.88287 1.51518C9.08235 1.51518 8.31443 1.81558 7.74713 2.35067C7.17989 2.88576 6.85938 3.61195 6.8559 4.37033V8.37599C6.8541 8.57622 6.7689 8.7676 6.61886 8.9086C6.46875 9.04954 6.26598 9.12861 6.05469 9.12861C5.84334 9.12861 5.64056 9.04954 5.49049 8.9086C5.34042 8.7676 5.25522 8.57622 5.25342 8.37599V4.37033C5.25776 3.20983 5.74742 2.09826 6.61514 1.2791C7.48288 0.459953 8.65791 0 9.88287 0C11.1079 0 12.2829 0.459953 13.1506 1.2791C14.0184 2.09826 14.508 3.20983 14.5124 4.37033V8.37599C14.5124 8.47567 14.4917 8.57441 14.4514 8.6665C14.4111 8.75859 14.3521 8.84228 14.2777 8.91272C14.2033 8.98322 14.115 9.03915 14.0177 9.07729C13.9205 9.11542 13.8163 9.13504 13.7111 9.13504Z" fill="black" fill-opacity="0.2"/>
<path d="M28.9999 17.1348C29.0038 18.3874 28.528 19.5988 27.6609 20.5444C27.6519 20.5487 27.6474 20.5572 27.6429 20.5615L27.1262 21.051L19.91 27.8875L12.4781 20.8467C11.9125 20.3927 11.4496 19.8351 11.1172 19.2075C10.7847 18.5798 10.5896 17.895 10.5434 17.1941C10.4972 16.4932 10.601 15.7907 10.8485 15.1287C11.0961 14.4668 11.4822 13.859 11.9838 13.3419C12.4854 12.8248 13.0921 12.4091 13.7674 12.1196C14.4429 11.8302 15.173 11.673 15.9141 11.6575C16.6552 11.642 17.3919 11.7686 18.0802 12.0295C18.7683 12.2905 19.3938 12.6804 19.919 13.176C20.7178 12.5269 21.6963 12.1085 22.7386 11.9704C23.7809 11.8324 24.843 11.9806 25.7991 12.3974C26.7551 12.8142 27.5649 13.482 28.1322 14.3218C28.6996 15.1615 29.0007 16.1378 28.9999 17.1348Z" fill="white"/>
</svg>
